<svg xmlns:xlink="http://www.w3.org/1999/xlink" xmlns="http://www.w3.org/2000/svg" width="194" height="377" viewBox="0 0 194 377" fill="none">
<g filter="url(#filter0_d_39_391)">
<path d="M72.7011 294.8C74.9752 290.609 80.9146 281.626 90.5567 267.871C102.66 250.026 110.292 238.28 113.358 232.63C119.835 220.693 122.429 209.313 121.061 198.544C119.693 187.776 113.96 178.272 103.806 170.049L104.151 169.412C116.617 173.465 127.71 173.091 137.447 168.348C147.184 163.605 155.348 155.248 161.826 143.311C164.892 137.661 170.617 124.88 178.944 104.986C185.221 89.4051 189.454 79.6415 191.627 75.6377C194.815 69.7629 198.648 66.1761 203.206 64.8228C207.744 63.507 213.342 64.6072 220.072 68.2593L231.364 74.3866L258.491 24.395L235.235 11.7752C215.119 0.859745 196.25 -2.45266 178.648 1.80038C161.026 6.09085 146.959 17.8323 136.481 37.1404C133.517 42.6036 130.558 49.0383 127.6 56.5397C124.606 64.0208 121.885 71.2636 119.437 78.3628C113.348 94.5788 108.933 105.212 106.191 110.264C102.313 117.411 97.1864 121.507 90.713 122.644C89.104 122.934 87.369 123.01 85.5079 122.872C71.8522 121.904 58.6986 128.038 52.1807 140.049L51.4091 141.471C45.0131 153.258 45.1967 168.082 53.4065 178.64C59.5366 186.52 60.1229 195.072 55.1482 204.24C52.5289 209.067 46.0808 218.452 35.8041 232.396C31.2242 238.339 26.6346 244.567 21.9573 251.135C17.3174 257.723 13.4981 263.691 10.5336 269.155C0.0766272 288.425 -2.15809 306.636 3.88725 323.769C9.89519 340.882 23.0147 354.88 43.093 365.775L47.991 368.433C52.0036 329.196 72.7011 294.8 72.7011 294.8Z" fill="#2B7EFF"></path>
</g>
<defs>
<filter id="filter0_d_39_391" x="0.574219" y="0.0078125" width="265.917" height="376.425" filterUnits="userSpaceOnUse" color-interpolation-filters="sRGB">
<feFlood flood-opacity="0" result="BackgroundImageFix"></feFlood>
<feColorMatrix in="SourceAlpha" type="matrix" values="0 0 0 0 0 0 0 0 0 0 0 0 0 0 0 0 0 0 127 0" result="hardAlpha"></feColorMatrix>
<feOffset dx="8" dy="8"></feOffset>
<feComposite in2="hardAlpha" operator="out"></feComposite>
<feColorMatrix type="matrix" values="0 0 0 0 0 0 0 0 0 0 0 0 0 0 0 0 0 0 1 0"></feColorMatrix>
<feBlend mode="normal" in2="BackgroundImageFix" result="effect1_dropShadow_39_391"></feBlend>
<feBlend mode="normal" in="SourceGraphic" in2="effect1_dropShadow_39_391" result="shape"></feBlend>
</filter>
</defs>
</svg>