<svg xmlns:xlink="http://www.w3.org/1999/xlink" xmlns="http://www.w3.org/2000/svg" width="44" height="47" viewBox="0 0 44 47" fill="none">
<path d="M38.5729 27.0445C36.9599 27.1658 35.3469 27.2264 33.7705 27.4083C31.4243 27.7115 29.628 28.7421 28.5282 30.5004C27.795 31.6826 27.1351 32.8952 26.5852 34.1684C25.1188 37.4727 24.239 40.9285 23.1392 44.2934C22.9926 44.7481 22.9559 45.2635 22.8459 45.7182C22.8093 45.9001 22.7726 46.1123 22.6626 46.2638C22.406 46.7186 21.9294 46.9611 21.3795 46.9004C20.8296 46.8398 20.3897 46.476 20.3531 45.9607C20.3164 45.6879 20.3164 45.3847 20.3897 45.0816C20.6097 43.9296 20.5364 42.808 20.3897 41.6864C20.0964 39.4734 19.6932 37.2605 18.85 35.1385C17.7869 32.6224 16.1738 30.4094 13.6443 28.6815C12.3612 27.8024 11.0415 26.9536 9.72173 26.0745C7.70544 24.7407 5.39588 23.8615 3.013 23.0734C2.6464 22.9521 2.20648 22.9218 1.76656 22.8005C1.47329 22.7399 1.14335 22.6793 0.850071 22.558C0.226855 22.3155 -0.0297633 21.8002 0.116876 21.2848C0.263515 20.7998 0.813411 20.4966 1.47329 20.5573C1.94986 20.5876 2.4631 20.6785 2.93968 20.7998C5.6525 21.497 8.43864 21.3454 11.2248 21.1332C12.2513 21.0726 13.2777 20.9817 14.2675 20.7998C16.5771 20.3451 18.3734 19.2841 19.4366 17.4955C20.2797 16.1011 20.8663 14.646 21.2696 13.0999C21.9294 10.7051 22.8459 8.34059 23.2125 5.88513C23.3958 4.64224 23.6158 3.39935 23.7991 2.12615C23.8724 1.79269 23.9091 1.45924 24.019 1.12578C24.239 0.792321 24.5689 0.519492 25.0455 0.489178C25.5221 0.458863 25.962 0.671064 26.1086 1.09546C26.2919 1.55018 26.4386 2.03521 26.4752 2.52024C26.6585 4.7635 26.8418 7.00676 27.0251 9.28034C27.2084 11.3417 27.3184 13.4031 27.575 15.4342C27.795 17.1014 28.4915 18.6778 29.628 20.1026C30.6544 21.4061 32.0842 22.2246 33.7705 22.8005C34.8703 23.1643 35.9334 23.5584 37.0332 23.8615C37.6198 24.0434 38.2797 24.1041 38.9029 24.2253C40.1127 24.4678 41.3591 24.68 42.5689 24.9529C43.1188 25.0741 43.4854 25.4076 43.522 25.8926C43.5953 26.3473 43.2654 26.802 42.6788 26.9839C42.2756 27.1052 41.8357 27.1961 41.3957 27.1961C40.4426 27.2264 39.4528 27.1961 38.4996 27.1961C38.573 27.1355 38.5729 27.0749 38.5729 27.0445Z" fill="black"></path>
</svg>