<svg xmlns:xlink="http://www.w3.org/1999/xlink" xmlns="http://www.w3.org/2000/svg" width="116" height="45" viewBox="0 0 116 45" fill="none">
<path d="M12.865 18.8074L12.2589 21.8379C12.0425 22.6489 11.7135 23.4255 11.2813 24.145C10.8251 24.9271 10.5514 25.4159 10.4601 25.6114C10.3672 25.7352 10.3189 25.8868 10.3233 26.0415C10.3233 26.2892 10.4341 26.4326 10.6557 26.4717H10.7925C10.9504 26.471 11.1051 26.4269 11.2396 26.3441C11.3741 26.2613 11.4832 26.1431 11.555 26.0024C13.054 23.4347 14.6116 21.4665 16.2279 20.0978C17.8441 18.7292 19.5842 18.0449 21.4482 18.0449C22.8689 18.0449 23.9377 18.3186 24.6546 18.8661C25.3715 19.4135 25.7365 20.4302 25.7495 21.9161C25.7221 23.0489 25.578 24.1758 25.3194 25.279V25.4746C25.3108 25.5477 25.3183 25.6219 25.3412 25.692C25.3641 25.762 25.402 25.8262 25.4522 25.8801C25.5024 25.9341 25.5638 25.9764 25.632 26.0043C25.7002 26.0322 25.7737 26.0449 25.8473 26.0415H25.9451C26.0782 26.0509 26.2115 26.0251 26.3316 25.9668C26.4517 25.9085 26.5544 25.8196 26.6294 25.7092L26.8835 25.3377C30.2203 20.4889 33.6875 18.0645 37.285 18.0645C38.8883 18.0645 40.0548 18.4034 40.7848 19.0812C41.5147 19.7589 41.8797 20.932 41.8797 22.6005C41.8797 23.93 41.6776 25.5528 41.2736 27.4688L37.8325 43.7749H30.2464L33.2769 29.5022C33.5504 28.3874 33.7077 27.2474 33.7462 26.1002C33.7462 24.901 33.3356 24.3015 32.5144 24.3015C31.3804 24.3015 30.1878 25.2008 28.9365 26.9996C27.6852 28.7983 26.5512 30.9881 25.5345 33.5689C24.5965 35.8788 23.8637 38.2668 23.3447 40.7053L22.6799 43.7554H15.133L17.9289 30.5189C18.1244 29.6325 18.2873 28.7788 18.4177 27.9576C18.5414 27.3193 18.6133 26.6719 18.6327 26.022C18.6327 24.8619 18.2417 24.2819 17.4596 24.2819C16.6776 24.2819 15.5892 25.1096 14.1945 26.765C12.9432 28.4203 11.7701 30.5254 10.6752 33.0801C9.60807 35.5155 8.78293 38.0498 8.2117 40.6466L7.54694 43.7749H0L5.2985 18.8074H12.865Z" fill="#fff"></path>
<path d="M45.5164 24.9486C46.8611 22.913 48.6365 21.1977 50.7171 19.9238C52.6777 18.7071 54.9399 18.0637 57.2474 18.0664C58.629 18.0664 59.7369 18.3662 60.5711 18.9658C61.4396 19.602 62.1711 20.4065 62.7218 21.3315C62.8414 21.5082 62.9863 21.6664 63.152 21.8008C63.2315 21.8491 63.3228 21.8747 63.4159 21.8747C63.509 21.8747 63.6003 21.8491 63.6799 21.8008C63.801 21.7499 63.9054 21.6662 63.9814 21.5591C64.0575 21.452 64.102 21.3258 64.11 21.1947C64.0987 21.0473 64.0658 20.9023 64.0122 20.7645L63.6799 20.0998C63.5553 19.8647 63.4883 19.6033 63.4843 19.3373C63.4797 19.1604 63.4928 18.9836 63.5234 18.8094H71.0899L68.294 32.0458C67.7857 34.3529 67.4207 36.1712 67.1992 37.5008C66.9976 38.6306 66.8864 39.7748 66.8668 40.9223C66.8662 41.8836 67.0112 42.8394 67.2969 43.7573H59.6522C59.5102 43.2342 59.4315 42.6959 59.4176 42.1541C59.4133 41.371 59.5593 40.5945 59.8477 39.8665C60.1735 39.0723 60.5659 38.307 61.0208 37.579C61.2128 37.3023 61.389 37.0151 61.5487 36.7187C61.6285 36.5743 61.6753 36.4141 61.6856 36.2495C61.6889 36.1585 61.6644 36.0686 61.6156 35.9918C61.5667 35.915 61.4957 35.8549 61.4119 35.8193C61.3401 35.7809 61.2576 35.7672 61.1772 35.7802C61.0326 35.7833 60.8911 35.8237 60.7667 35.8975C60.7045 35.9286 60.6497 35.9726 60.6058 36.0265C60.562 36.0805 60.5302 36.1431 60.5125 36.2104C57.4494 41.763 53.8258 44.5328 49.6418 44.5198C47.465 44.5198 45.6858 43.6986 44.3042 42.0563C42.9225 40.414 42.2317 38.2242 42.2317 35.4869C42.2224 34.2648 42.3469 33.0453 42.6032 31.8503C43.13 29.3833 44.1256 27.0403 45.5359 24.9486H45.5164ZM56.6022 36.7187C57.7622 35.8063 58.805 34.5094 59.7304 32.8279C60.6858 30.9991 61.377 29.044 61.7833 27.0211C61.1577 26.0696 60.5255 25.4048 59.8868 25.0268C59.2481 24.6488 58.427 24.4598 57.4233 24.4598C56.5459 24.4484 55.6762 24.6257 54.8733 24.98C54.0704 25.3342 53.3531 25.8569 52.77 26.5127C51.4927 27.8813 50.5998 29.7453 50.0915 32.1045C49.9504 32.8 49.8719 33.5066 49.8568 34.2161C49.8568 35.4804 50.1501 36.4385 50.7367 37.0902C51.0203 37.4154 51.3726 37.6736 51.7683 37.8461C52.1639 38.0185 52.5929 38.1009 53.0242 38.0873C54.2234 38.0873 55.403 37.6311 56.5631 36.7187" fill="#fff"></path>
<path d="M87.6305 29.2098L95.6662 43.7758H86.5943L81.6282 34.1759L79.1255 36.2484L77.5223 43.7562H69.9558L77.1899 9.7168H84.7564L81.7846 23.6571C81.6464 24.3549 81.4025 25.0274 81.0612 25.6514C80.7393 26.1864 80.3518 26.679 79.9076 27.1178C79.308 27.6522 79.1646 28.0628 79.4775 28.3495C79.5271 28.396 79.5855 28.4321 79.6493 28.4556C79.7131 28.4791 79.781 28.4896 79.849 28.4864C80.0966 28.4864 80.3834 28.33 80.7092 28.0172L91.1498 18.8083H100.222L87.6305 29.2098Z" fill="#fff"></path>
<path d="M107.084 18.9455C108.362 19.0367 109.281 19.2713 109.841 19.6493C110.402 20.0273 110.688 20.6269 110.701 21.4481C110.701 22.1128 110.525 23.0578 110.174 24.2831L107.573 34.1175C107.286 35.3167 107.143 36.0727 107.143 36.3855C107.143 36.6984 107.319 37.0438 107.671 37.4218C108.023 37.6173 108.635 37.715 109.509 37.715H111.308L110.037 43.7565H104.23C102.275 43.7565 100.873 43.5023 100.026 42.994C99.179 42.4857 98.7489 41.5602 98.7358 40.2177C98.7358 39.3313 98.9248 38.1843 99.3028 36.7766L101.805 27.4113C102.053 26.4989 102.177 25.8993 102.177 25.6126C102.195 25.4657 102.156 25.3176 102.069 25.1979C101.982 25.0783 101.853 24.9959 101.708 24.9674C101.395 24.8892 100.717 24.8501 99.6743 24.8501L100.945 18.8086C103.748 18.8086 105.787 18.8542 107.065 18.9455" fill="#fff"></path>
<path d="M108.101 0L107.514 8.83735L105.462 4.79016L104.054 5.49402L106.165 9.67807L99.1464 5.43536L98.3252 6.78443L105.266 10.9685H99.5178V12.5522H105.638L100.828 15.9933L101.727 17.2641L106.596 13.8035L105.364 17.5378L106.85 18.0266L108.453 13.2365L112.891 17.7334L114.006 16.6385L109.978 12.5522H110.936H116V10.9685H110.017L115.12 5.9046L114.006 4.79016L109.04 9.73673L109.665 0.0977583L108.101 0Z" fill="#fff"></path>
</svg>