<svg xmlns:xlink="http://www.w3.org/1999/xlink" xmlns="http://www.w3.org/2000/svg" width="214" height="266" viewBox="0 0 214 266" fill="none">
<path d="M213.182 37.8616C213.244 48.9806 210.934 59.6191 207.064 69.8458C202.944 80.9647 197.388 91.1227 190.709 100.594C181.844 113.086 172.169 124.754 162.118 136.079C148.26 151.728 133.465 166.141 118.171 180.074C101.691 195.105 84.899 209.725 67.4201 223.383C51.0025 236.287 33.6485 247.337 15.0459 255.985C7.43013 259.486 -0.310515 262.574 -8.42571 264.221C-13.6069 265.32 -18.8506 266.143 -24.2191 265.731C-28.3392 265.457 -32.1471 264.084 -35.6428 261.682C-39.638 259.005 -41.7604 255.161 -42.0101 250.082C-42.1974 247.131 -42.135 244.111 -41.6356 241.228C-39.9501 231.62 -37.8277 222.148 -34.4568 213.088C-30.6489 202.861 -26.0294 193.046 -20.8482 183.575C-9.98633 163.739 2.24889 145.002 15.4829 126.95C34.023 101.624 54.311 78.082 76.7214 56.8737C95.0118 39.5089 114.988 25.0268 136.899 13.7706C146.887 8.62294 157.187 4.64208 168.049 2.23984C174.353 0.867131 180.721 0.249412 187.088 1.07304C190.709 1.55349 194.267 2.51438 197.575 4.23027C203.506 7.18159 207.626 11.9861 210.123 18.5751C211.933 23.3109 212.807 28.2527 213.119 33.2631C213.244 34.9103 213.182 36.3517 213.182 37.8616Z" fill="#FA8000"></path>
<mask id="mask0_39_443" style="mask-type:alpha" maskUnits="userSpaceOnUse" x="-43" y="0" width="257" height="266">
<path d="M213.182 37.8616C213.244 48.9806 210.934 59.6191 207.064 69.8458C202.944 80.9647 197.388 91.1227 190.709 100.594C181.844 113.086 172.169 124.754 162.118 136.079C148.26 151.728 133.465 166.141 118.171 180.074C101.691 195.105 84.899 209.725 67.4201 223.383C51.0025 236.287 33.6485 247.337 15.0459 255.985C7.43013 259.486 -0.310515 262.574 -8.42571 264.221C-13.6069 265.32 -18.8506 266.143 -24.2191 265.731C-28.3392 265.457 -32.1471 264.084 -35.6428 261.682C-39.638 259.005 -41.7604 255.161 -42.0101 250.082C-42.1974 247.131 -42.135 244.111 -41.6356 241.228C-39.9501 231.62 -37.8277 222.148 -34.4568 213.088C-30.6489 202.861 -26.0294 193.046 -20.8482 183.575C-9.98633 163.739 2.24889 145.002 15.4829 126.95C34.023 101.624 54.311 78.082 76.7214 56.8737C95.0118 39.5089 114.988 25.0268 136.899 13.7706C146.887 8.62294 157.187 4.64208 168.049 2.23984C174.353 0.867131 180.721 0.249412 187.088 1.07304C190.709 1.55349 194.267 2.51438 197.575 4.23027C203.506 7.18159 207.626 11.9861 210.123 18.5751C211.933 23.3109 212.807 28.2527 213.119 33.2631C213.244 34.9103 213.182 36.3517 213.182 37.8616Z" fill="black"></path>
</mask>
<g mask="url(#mask0_39_443)">
<path d="M-8.70931 239.735C-8.95901 241.794 -9.27113 243.853 -9.52083 245.912C-11.2687 259.708 -14.6396 273.161 -19.0094 286.27C-19.3839 287.368 -19.8833 288.398 -20.4451 289.359C-20.6324 289.702 -21.2566 290.045 -21.5688 289.908C-21.9433 289.839 -22.193 289.221 -22.7548 288.535C-21.0694 288.741 -20.8197 287.711 -20.57 286.751C-17.1366 275.288 -13.953 263.758 -12.0178 251.815C-11.2687 247.148 -10.7069 242.481 -10.0202 237.814C-9.89538 236.784 -10.0202 235.892 -10.3948 234.931C-14.9518 223.743 -18.5724 212.144 -20.7573 199.995C-22.1306 192.651 -23.0045 185.307 -22.6924 177.757C-22.63 176.453 -22.4427 175.149 -22.0682 173.914C-21.4439 171.786 -19.7585 171.237 -18.1978 172.678C-17.199 173.639 -16.3251 174.943 -15.576 176.248C-13.6408 179.611 -12.4548 183.317 -11.3936 187.161C-9.64568 193.544 -8.64688 200.064 -8.02264 206.722C-7.52324 212.281 -7.33597 217.772 -7.46082 223.331C-7.52324 226.489 -7.77294 229.715 -8.02264 232.872C-8.08506 233.97 -7.96021 234.999 -7.52324 236.029C-4.96383 242 -2.15473 247.834 1.2162 253.256C3.02651 256.208 5.0241 259.022 7.39623 261.493C9.01927 263.209 10.7672 264.787 12.7647 265.885C15.8235 267.533 18.8823 267.67 22.0036 266.229C24.126 265.268 25.9363 263.895 27.6218 262.248C30.4933 259.434 32.803 256.208 34.9255 252.707C40.0443 244.197 43.6025 234.931 46.0995 225.185C46.8486 222.371 47.348 219.556 48.0346 216.742C48.1595 216.125 48.097 215.576 47.7849 215.027C41.7297 204.251 37.9218 192.377 34.7382 180.297C31.6794 168.56 29.4945 156.618 27.8091 144.607C26.623 135.89 25.6242 127.105 24.6254 118.319C24.0012 112.76 23.689 107.132 23.8763 101.572C23.9387 99.9249 24.1884 98.2776 24.5006 96.699C24.6254 95.944 25 95.2577 25.3745 94.64C26.186 93.3359 27.4969 92.7868 28.8079 93.4045C29.8691 93.885 30.9927 94.5713 31.8042 95.4636C33.1776 97.0422 34.4885 98.7581 35.5497 100.543C38.9831 106.102 41.4176 112.279 43.6025 118.525C47.4104 129.644 49.9074 141.175 51.468 152.911C53.091 165.197 53.7777 177.483 53.4031 189.837C53.1534 197.936 52.3419 206.035 50.9686 214.066C50.8437 214.752 50.7813 215.438 51.2183 216.125C53.4656 219.762 55.9625 223.194 59.1462 225.871C60.145 226.763 61.2686 227.518 62.3923 228.205C66.5747 230.675 70.882 230.744 75.1893 228.479C78.0608 226.969 80.433 224.704 82.5554 222.096C85.0524 219.007 87.1124 215.576 88.9227 211.938C93.1052 203.564 95.9143 194.573 98.0991 185.376C101.782 169.933 103.655 154.147 103.967 138.155C103.967 137.4 103.78 136.508 103.468 135.821C94.104 116.672 87.9239 96.2872 83.4294 75.2161C82.3681 70.2744 81.5566 65.1954 81.1821 60.1163C80.9948 57.3709 80.9948 54.6255 81.619 51.9487C81.8063 51.1937 82.1184 50.3701 82.493 49.6837C83.6791 47.4874 85.6766 46.8697 87.6118 48.2424C88.6106 48.9974 89.6094 49.8897 90.3585 50.9878C91.607 52.841 92.7306 54.8314 93.667 56.8218C96.7258 63.4108 98.7858 70.4116 100.534 77.4811C103.655 90.3846 105.528 103.563 106.277 116.946C106.589 122.849 106.651 128.82 106.839 134.723C106.839 135.409 106.963 136.164 107.276 136.782C110.334 142.685 113.83 148.382 118.262 153.117C121.383 156.481 124.817 159.226 128.937 160.805C131.808 161.903 134.742 162.315 137.801 161.834C141.422 161.216 144.356 159.363 146.915 156.549C149.162 154.078 150.91 151.264 152.409 148.176C155.467 141.861 157.465 135.135 158.963 128.271C161.585 116.191 162.833 103.974 163.208 91.5514C163.27 89.4237 163.27 87.296 163.333 85.0996C163.333 84.276 163.083 83.6583 162.521 83.1092C150.411 70.0685 142.982 54.2823 139.924 35.9567C138.613 27.9263 138.363 19.8273 139.861 11.7283C140.236 9.60064 140.922 7.47294 141.671 5.48251C142.108 4.31571 142.858 3.1489 143.669 2.25664C145.23 0.472122 147.415 0.19758 149.287 1.57029C150.473 2.46255 151.597 3.56072 152.346 4.86479C153.719 7.1984 155.03 9.66927 156.029 12.2088C158.713 18.7978 160.336 25.7986 161.71 32.7994C164.769 48.4483 166.142 64.2345 166.329 80.2265C166.329 81.5306 166.704 82.4229 167.64 83.3151C173.758 88.9432 180.874 92.1691 188.677 93.8163C194.857 95.1204 201.162 95.5322 207.467 95.7381C211.962 95.8754 216.456 95.8754 220.951 95.7381C223.26 95.6695 225.633 95.395 227.942 95.0518C229.316 94.8459 230.689 94.4341 231.75 92.9927C231.75 94.1595 231.313 94.7772 230.626 95.1204C229.503 95.7381 228.379 96.3558 227.193 96.699C223.635 97.7972 219.889 98.0717 216.206 98.209C208.154 98.5522 200.101 98.2776 192.111 97.5913C182.997 96.7677 174.632 93.7477 167.266 87.5705C167.016 87.3646 166.766 87.2273 166.329 86.9528C166.267 87.7078 166.267 88.3255 166.204 88.8746C166.017 98.8954 165.268 108.847 163.707 118.662C162.396 126.967 160.586 135.135 157.715 142.891C156.466 146.254 155.093 149.548 153.22 152.568C151.972 154.559 150.661 156.481 149.1 158.196C143.544 164.442 136.802 166.227 129.187 163.962C125.191 162.795 121.758 160.53 118.637 157.647C114.267 153.598 110.771 148.725 107.713 143.508C107.463 143.097 107.213 142.685 106.963 142.273C106.901 142.204 106.776 142.204 106.589 142.067C106.464 144.263 106.339 146.46 106.214 148.587C104.966 166.57 102.094 184.209 96.2888 201.094C94.4785 206.447 92.2312 211.595 89.4845 216.468C87.487 220.037 85.2397 223.4 82.3057 226.145C80.7451 227.655 79.0596 229.028 77.1869 230.126C71.6311 233.489 66.0129 233.284 60.5195 229.852C57.0238 227.655 54.1522 224.567 51.6552 221.135C51.1559 220.449 50.6565 219.762 50.0322 218.939C49.8449 219.694 49.6577 220.243 49.5328 220.792C47.1607 231.499 43.7273 241.794 38.4837 251.266C36.174 255.384 33.6146 259.296 30.4933 262.728C28.4957 264.856 26.3733 266.709 23.8139 268.013C19.3817 270.347 15.012 270.141 10.7672 267.464C8.3326 265.954 6.27259 263.964 4.39985 261.767C1.4659 258.336 -1.03109 254.561 -3.15352 250.58C-4.83899 247.491 -6.33717 244.265 -7.96021 241.108C-8.20991 240.628 -8.39719 240.147 -8.64688 239.667C-8.52203 239.667 -8.58446 239.667 -8.70931 239.735ZM48.8461 211.526C49.0334 211.046 49.0958 210.84 49.1583 210.634C50.0946 204.663 50.6565 198.691 50.9686 192.651C51.5304 181.327 51.031 170.07 49.8449 158.814C48.534 146.872 46.2867 135.204 42.791 123.879C40.5437 116.603 37.797 109.534 34.0515 103.013C33.1152 101.366 31.9915 99.7876 30.8054 98.2776C30.306 97.5913 29.5569 96.9736 28.8703 96.4931C27.9963 95.8754 27.5594 96.0127 27.2472 97.1108C26.9351 98.1404 26.7478 99.2385 26.6854 100.337C26.186 106.857 26.6854 113.377 27.4345 119.898C28.4333 129.164 29.6194 138.429 30.9303 147.627C32.6158 159.5 34.9255 171.237 38.1091 182.768C40.6685 192.171 43.7273 201.299 47.9722 209.948C48.1595 210.291 48.4092 210.771 48.8461 211.526ZM163.27 78.5793C163.333 77.8243 163.333 77.4125 163.333 76.932C162.958 61.7636 161.46 46.7324 158.401 31.9072C157.09 25.3868 155.467 18.9351 152.908 12.8265C152.034 10.7674 150.91 8.77701 149.787 6.85522C149.35 6.03159 148.601 5.34524 147.914 4.79616C147.165 4.17844 146.541 4.24707 145.916 4.93343C145.542 5.34524 145.167 5.89432 144.98 6.37477C144.418 7.81612 143.856 9.3261 143.544 10.8361C142.108 17.5624 142.046 24.4259 142.858 31.2894C144.855 48.6542 151.285 63.8913 161.835 76.932C162.209 77.4811 162.646 77.8929 163.27 78.5793ZM103.842 129.644C103.905 129.644 104.029 129.575 104.092 129.575C104.092 129.37 104.154 129.164 104.154 128.958C103.842 112.073 102.032 95.395 98.1616 78.9911C96.5385 72.0589 94.5409 65.264 91.6694 58.8809C90.733 56.8218 89.6094 54.9 88.4233 52.9782C87.9239 52.1546 87.1124 51.4683 86.3633 50.8505C85.7391 50.3701 85.2397 50.5074 84.8651 51.2624C84.4906 52.086 84.2409 52.9782 84.116 53.9391C83.5542 57.7141 84.0536 61.489 84.553 65.264C85.6766 73.1571 87.4245 80.9815 89.4845 88.6687C93.0427 102.19 97.2876 115.368 102.968 128.065C103.28 128.477 103.592 129.026 103.842 129.644ZM-20.0706 173.777C-20.8197 174.943 -20.8821 176.248 -20.9445 177.483C-21.0694 181.67 -20.7573 185.925 -20.2579 190.112C-18.5724 203.839 -14.8893 216.948 -10.0826 229.715C-9.9578 230.058 -9.7081 230.401 -9.39598 231.019C-9.27113 229.234 -9.14628 227.93 -9.08386 226.557C-8.70931 217.497 -9.08386 208.438 -10.5196 199.515C-11.5184 193.2 -12.8293 186.955 -15.3263 181.052C-16.0754 179.199 -17.0742 177.483 -18.0106 175.767C-18.3851 174.875 -19.0094 174.12 -20.0706 173.777Z" fill="white"></path>
</g>
</svg>