<svg xmlns:xlink="http://www.w3.org/1999/xlink" xmlns="http://www.w3.org/2000/svg" width="197" height="329" viewBox="0 0 197 329" fill="none">
<g filter="url(#filter0_d_39_392)">
<path d="M-1.66189 244.933C0.585945 240.727 4.81819 230.825 10.9974 215.205C19.2368 195.279 24.8443 182.443 27.8748 176.773C34.2771 164.796 42.3518 156.368 52.0962 151.584C61.8406 146.801 72.9308 146.357 85.3846 150.311L85.7259 149.672C75.4824 141.493 69.6904 132.025 68.2925 121.285C66.8946 110.545 69.3793 99.1293 75.7816 87.1524C78.8122 81.483 86.333 69.6694 98.3616 51.7693C107.917 37.9539 113.74 29.0464 115.887 25.029C119.038 19.1344 119.923 13.9593 118.545 9.40895C117.147 4.89612 113.148 0.827392 106.395 -2.78237L95.0648 -8.83874L121.878 -58.9994L145.213 -46.5256C165.397 -35.7365 178.546 -21.8042 184.681 -4.76664C190.797 12.3085 188.734 30.5151 178.378 49.8886C175.447 55.3702 171.703 61.3821 167.067 67.9794C162.469 74.5968 157.918 80.8538 153.338 86.8051C143.149 100.813 136.7 110.351 133.99 115.419C130.157 122.591 129.558 129.126 132.171 135.156C132.815 136.659 133.706 138.15 134.845 139.628C143.168 150.497 145.285 164.855 138.843 176.907L138.08 178.334C131.758 190.161 119.279 198.166 105.946 197.121C95.993 196.338 88.5295 200.555 83.6123 209.754C81.0233 214.597 76.7351 225.146 70.7478 241.4C68.3061 248.494 65.6315 255.753 62.7212 263.273C59.7734 270.773 56.892 277.246 53.9618 282.728C43.6259 302.064 29.6502 313.951 12.0176 318.332C-5.57743 322.733 -24.4842 319.481 -44.6304 308.712L-49.545 306.084C-18.992 281.142 -1.66189 244.933 -1.66189 244.933Z" fill="#FA8000"></path>
</g>
<defs>
<filter id="filter0_d_39_392" x="-49.545" y="-58.999" width="245.65" height="387.232" filterUnits="userSpaceOnUse" color-interpolation-filters="sRGB">
<feFlood flood-opacity="0" result="BackgroundImageFix"></feFlood>
<feColorMatrix in="SourceAlpha" type="matrix" values="0 0 0 0 0 0 0 0 0 0 0 0 0 0 0 0 0 0 127 0" result="hardAlpha"></feColorMatrix>
<feOffset dx="8" dy="8"></feOffset>
<feComposite in2="hardAlpha" operator="out"></feComposite>
<feColorMatrix type="matrix" values="0 0 0 0 0 0 0 0 0 0 0 0 0 0 0 0 0 0 1 0"></feColorMatrix>
<feBlend mode="normal" in2="BackgroundImageFix" result="effect1_dropShadow_39_392"></feBlend>
<feBlend mode="normal" in="SourceGraphic" in2="effect1_dropShadow_39_392" result="shape"></feBlend>
</filter>
</defs>
</svg>