<svg xmlns="http://www.w3.org/2000/svg" width="204" height="18" viewBox="0 0 204 18" fill="none">
<path fill-rule="evenodd" clip-rule="evenodd" d="M101.514 0.0640177C101.47 0.106238 98.8755 0.219931 95.7469 0.31679C89.781 0.501402 87.6562 0.606539 85.0316 0.847169C84.1585 0.926919 82.0075 1.06683 80.2518 1.15789C78.4961 1.24896 76.1745 1.44378 75.0926 1.59114C74.0108 1.7385 72.7339 1.85357 72.2553 1.84639C71.7764 1.83949 71.2642 1.91124 71.1169 2.00617C70.9695 2.10137 70.1707 2.22417 69.3416 2.27936C67.4117 2.40795 65.7169 2.59395 63.0719 2.96731C61.9078 3.1315 60.5982 3.30894 60.1616 3.36165C59.7251 3.41408 59.0702 3.51811 58.7064 3.59262C58.3427 3.66712 57.3307 3.81973 56.4576 3.93176C55.5845 4.0438 54.751 4.22896 54.6055 4.34321C54.46 4.45773 54.0433 4.52617 53.6795 4.49526C53.3157 4.46435 52.8231 4.5372 52.5844 4.65669C52.3461 4.77645 51.7508 4.89925 51.2616 4.92933C50.7726 4.95941 50.258 5.04799 50.1183 5.12608C49.9786 5.20418 49.3238 5.30131 48.6632 5.34188C48.0025 5.38244 46.9858 5.53753 46.4037 5.68654C43.6947 6.38056 42.7851 6.54613 42.5422 6.38939C42.3978 6.2964 42.112 6.36539 41.907 6.54282C41.7022 6.71999 41.3003 6.78759 41.0141 6.69294C40.6363 6.56793 40.4463 6.67556 40.3217 7.08479C40.169 7.58675 40.106 7.60331 39.7528 7.23491C39.4883 6.95896 39.2073 6.90018 38.9112 7.05885C38.6665 7.18965 38.3178 7.24126 38.1358 7.17337C37.949 7.10328 37.8032 7.26996 37.8011 7.55557C37.7984 7.86353 37.7209 7.94245 37.6026 7.75729C37.3415 7.3486 36.5568 7.43718 31.0584 8.49574C29.4577 8.8037 27.8647 9.20328 27.5181 9.38347C27.1718 9.56367 26.5971 9.67129 26.2413 9.62245C25.5018 9.52145 22.9896 10.0952 22.9875 10.3656C22.9867 10.4641 22.4219 10.5795 21.7324 10.6214C19.8857 10.7343 18.5448 11.1785 18.408 11.7233C18.2953 12.1711 18.286 12.1709 18.2572 11.7178C18.2262 11.231 17.6839 11.0651 17.3301 11.4341C17.2251 11.5436 16.8182 11.6488 16.4261 11.6678C16.034 11.6866 15.3559 11.8626 14.9193 12.0586C14.4828 12.2545 13.8576 12.3991 13.5303 12.3798C13.0848 12.3535 12.935 12.4962 12.935 12.9463C12.935 13.5305 12.9242 13.5324 12.5635 13.018C12.1987 12.4979 12.1556 12.4995 10.1162 13.1243C8.97459 13.4742 7.6832 13.924 7.24666 14.1238C6.3934 14.5145 5.51634 14.8766 5.1962 14.971C5.0872 15.003 4.90834 15.0595 4.79934 15.0962C4.69033 15.1332 4.52312 15.1528 4.42788 15.1396C4.33263 15.1266 4.11144 15.296 3.93603 15.5162C3.6749 15.8443 3.74527 15.9677 4.32469 16.1973C5.28669 16.5789 5.4576 16.5549 5.77033 15.995C5.92008 15.7271 6.04363 15.6655 6.04813 15.857C6.05766 16.2729 6.95695 16.3093 7.65093 15.9219C7.92714 15.7676 8.48486 15.5965 8.89046 15.5416C9.82494 15.4147 11.1356 15.0703 11.4799 14.8611C11.6254 14.7725 11.9825 14.6641 12.2736 14.6199C12.5646 14.5758 12.9813 14.4577 13.1996 14.3575C13.4179 14.2571 13.8835 14.1403 14.2346 14.0978C14.5854 14.0553 14.9707 13.8594 15.0902 13.6624C15.2215 13.4469 15.3096 13.4264 15.3122 13.6111C15.318 14.0496 16.701 13.7471 17.1021 13.2198C17.301 12.9582 17.4328 12.9159 17.4328 13.1138C17.4328 13.4513 18.5384 13.5768 18.8303 13.2725C18.9866 13.1097 20.7667 12.8536 21.7321 12.8555C21.9869 12.8558 22.1951 12.76 22.1951 12.6422C22.1951 12.5244 22.7446 12.4065 23.4164 12.38C24.0879 12.3535 24.7726 12.2437 24.9377 12.1364C25.1028 12.0288 25.5949 11.9129 26.0315 11.8789C27.0969 11.7961 27.939 11.6424 29.2064 11.3C29.7884 11.1429 30.4432 11.0097 30.6615 11.0041C31.4425 10.9843 33.7187 10.6835 34.4979 10.4972C34.9344 10.3929 35.5892 10.2759 35.953 10.2375C36.3168 10.1989 37.1502 10.0303 37.805 9.86225C38.4599 9.69447 39.4089 9.49413 39.914 9.41687C40.4188 9.33987 40.9249 9.12739 41.0384 8.94499C41.1969 8.68973 41.2953 8.69497 41.4641 8.96761C41.6768 9.3109 42.5674 9.15968 42.5674 8.78052C42.5674 8.67731 42.8055 8.57411 43.0965 8.5512C43.3876 8.5283 43.6257 8.62212 43.6257 8.75982C43.6257 8.89725 43.7746 8.95989 43.9564 8.89863C44.1384 8.83764 44.9396 8.71319 45.7367 8.62212C46.626 8.52057 47.2734 8.29457 47.4117 8.03683C47.5604 7.75977 47.7422 7.70486 47.9464 7.87567C48.351 8.21454 49.9744 7.95211 49.9794 7.54729C49.9821 7.35274 50.0678 7.37233 50.2057 7.59889C50.385 7.89388 50.5115 7.87678 50.8631 7.51004C51.1026 7.26057 51.2983 7.1891 51.2983 7.35192C51.2983 7.7606 52.5059 7.72417 52.9332 7.30252C53.1252 7.11294 53.7888 6.97552 54.4071 6.99732C55.0254 7.01939 55.5315 6.92391 55.5315 6.78511C55.5315 6.64658 55.8223 6.60933 56.1779 6.70232C56.5335 6.79532 56.9798 6.77131 57.1698 6.64879C57.3598 6.52654 57.7534 6.42168 58.0447 6.41589C58.3358 6.41037 58.5443 6.25059 58.508 6.06073C58.43 5.65426 58.8864 5.58996 59.0152 5.98926C59.1186 6.31047 60.8347 6.56655 61.2199 6.31847C61.3654 6.22493 61.7226 6.14076 62.0136 6.13138C62.3047 6.12227 62.8034 5.9625 63.1219 5.7765C63.5053 5.55271 63.7577 5.53339 63.8678 5.71966C63.9596 5.87419 64.1249 5.94235 64.2355 5.87116C64.6607 5.59714 68.1944 5.10898 70.2432 5.04109C71.4224 5.00191 72.5014 4.89677 72.6403 4.80708C72.7794 4.7174 73.5409 4.61336 74.3325 4.57556C75.1238 4.53803 76.0628 4.34983 76.4189 4.15722C76.8909 3.90196 77.1611 3.88872 77.4148 4.10837C77.637 4.30071 78.217 4.33658 79.0163 4.20689C79.7055 4.09513 80.686 4.03276 81.1953 4.06808C81.7046 4.10368 82.2999 4.11913 82.5182 4.10258C82.7364 4.08574 83.8876 4.01731 85.0766 3.9497C86.2653 3.88237 87.4784 3.69306 87.7724 3.52915C88.0663 3.36496 88.3684 3.33488 88.4438 3.46209C88.5997 3.72508 89.5625 3.70355 89.8233 3.43146C89.9183 3.33267 90.2207 3.3771 90.4956 3.53053C90.7705 3.68423 91.0899 3.74881 91.2055 3.6743C91.4814 3.49631 100.39 3.17841 105.333 3.17014C107.494 3.16655 109.167 3.05589 109.088 2.92205C109.009 2.78905 109.061 2.68032 109.203 2.68032C109.344 2.68032 109.511 2.83568 109.572 3.02526C109.66 3.29818 109.765 3.29956 110.077 3.03188C110.294 2.84451 110.579 2.79732 110.715 2.92647C111.107 3.29928 112.644 3.51563 112.818 3.22229C112.905 3.07493 113.267 3.03023 113.622 3.12322C114.068 3.23995 114.268 3.17621 114.271 2.91709C114.274 2.65686 114.335 2.6381 114.47 2.85555C114.585 3.04099 115.42 3.16682 116.516 3.16406C117.535 3.1613 119.142 3.16655 120.088 3.17538C121.034 3.18421 121.927 3.18559 122.072 3.17814C122.984 3.13123 128.387 3.51811 128.503 3.6387C128.58 3.71928 128.847 3.59289 129.097 3.35778C129.505 2.97173 129.589 2.97173 129.959 3.35723C130.547 3.97067 131.105 3.92514 130.642 3.30121C130.301 2.84203 130.31 2.84203 130.824 3.29735C131.177 3.60918 131.456 3.68258 131.624 3.50707C131.793 3.33157 132.202 3.33929 132.798 3.5286C133.301 3.68837 135.083 3.8705 136.756 3.93314C138.429 3.99578 139.799 4.06036 139.799 4.07664C139.799 4.15501 141.362 4.31313 143.635 4.4649C145.017 4.5568 147.041 4.70277 148.133 4.78859C149.224 4.87469 150.772 4.9848 151.572 5.03364C154.474 5.21025 156.327 5.4001 156.854 5.57478C157.178 5.68213 157.393 5.62915 157.393 5.44205C157.393 5.27124 157.525 5.2166 157.687 5.32091C157.849 5.42522 158.68 5.54802 159.534 5.59355C160.388 5.63936 161.207 5.75443 161.355 5.84963C161.502 5.94456 162.542 6.02238 163.666 6.02238C164.801 6.02238 165.869 6.16146 166.07 6.33586C166.392 6.61402 168.186 6.80222 171.217 6.87617C171.763 6.88942 172.209 7.0136 172.209 7.15213C172.209 7.29065 172.3 7.34529 172.412 7.27327C172.523 7.20152 173.177 7.2523 173.864 7.38613C174.552 7.52025 175.562 7.65491 176.109 7.68554C176.656 7.71645 177.237 7.84642 177.4 7.97474C177.563 8.10306 178.516 8.25925 179.517 8.32189C180.518 8.38453 181.545 8.5203 181.8 8.62323C182.054 8.72616 182.434 8.74189 182.643 8.65827C182.852 8.57466 183.067 8.64613 183.122 8.81722C183.176 8.98804 183.828 9.14312 184.571 9.16161C185.313 9.18037 186.091 9.34263 186.299 9.52283C186.507 9.70303 186.729 9.79602 186.792 9.73007C186.856 9.66384 187.351 9.71406 187.894 9.84155C188.464 9.97567 188.942 9.96822 189.028 9.82417C189.109 9.68702 189.337 9.74359 189.535 9.95C189.733 10.1564 190.473 10.3965 191.18 10.484C192.758 10.6788 193.204 10.7776 193.375 10.9702C193.448 11.0524 194.406 11.3364 195.503 11.6013C196.601 11.8662 197.821 12.2572 198.215 12.4703C198.609 12.6836 198.931 12.7838 198.931 12.6935C198.931 12.603 199.14 12.7156 199.394 12.9438C199.824 13.3288 200.68 13.7769 201.092 13.8327C201.189 13.8456 201.357 13.9494 201.466 14.0633C201.576 14.177 201.87 14.2703 202.122 14.2703C202.373 14.2703 202.647 14.4566 202.731 14.6842C202.814 14.9119 202.997 15.0982 203.136 15.0982C203.47 15.0982 203.634 14.2082 203.365 13.8564C202.187 12.3146 200.801 11.2348 200 11.2348C199.703 11.2348 199.46 11.1131 199.46 10.9641C199.46 10.8154 199.145 10.6109 198.76 10.5102C198.376 10.4095 197.84 10.0968 197.57 9.81506C197.3 9.53359 196.805 9.30317 196.471 9.30317C196.136 9.30317 195.749 9.18672 195.611 9.04433C195.473 8.90194 195.062 8.74023 194.698 8.68504C194.334 8.62985 193.644 8.3677 193.164 8.10223C192.684 7.83704 191.763 7.59503 191.116 7.56467C190.469 7.53432 189.938 7.42394 189.937 7.31963C189.936 7.21532 189.727 7.1306 189.473 7.13115C188.862 7.13308 187.886 6.93219 186.827 6.5867C186.354 6.43244 185.967 6.36401 185.967 6.43465C185.967 6.50529 185.739 6.43603 185.461 6.28067C185.182 6.12503 184.379 5.97657 183.675 5.95035C182.971 5.92414 182.217 5.80907 181.998 5.6951C181.205 5.28007 178.377 4.80543 176.269 4.73368C175.083 4.69312 173.868 4.5234 173.568 4.35645C173.269 4.18923 172.93 4.07526 172.815 4.10285C172.7 4.13045 172.189 4.06229 171.68 3.95136C170.167 3.62187 169.279 3.50928 167.096 3.37048C165.957 3.29818 164.925 3.17427 164.802 3.09508C164.679 3.01588 163.944 2.89501 163.168 2.8263C162.393 2.75759 160.984 2.62016 160.039 2.52054C159.093 2.4212 157.724 2.29758 156.996 2.2457C156.268 2.19409 155.078 2.06853 154.35 1.96698C153.623 1.86543 152.075 1.72884 150.911 1.66344C148.624 1.53512 147.368 1.44378 144.535 1.19928C139.488 0.764384 137.324 0.707537 136.806 0.996735C136.389 1.22964 136.176 1.20812 135.884 0.903464C135.675 0.685738 135.042 0.514096 134.477 0.521822C133.911 0.529549 132.139 0.45173 130.538 0.3488C125.598 0.0311787 106.759 -0.0452599 106.408 0.250837C106.232 0.399023 105.937 0.42248 105.752 0.303268C105.441 0.102651 101.691 -0.10928 101.514 0.0640177ZM158.103 4.93982C158.018 5.15975 157.956 5.09435 157.943 4.77287C157.931 4.48201 157.994 4.3192 158.082 4.41082C158.17 4.50243 158.179 4.74058 158.103 4.93982ZM58.0934 6.04363C58.009 6.26356 57.9463 6.19816 57.9336 5.87667C57.9222 5.58582 57.9847 5.42301 58.0725 5.51463C58.1604 5.60624 58.1699 5.84439 58.0934 6.04363ZM49.5347 6.97772C49.3331 7.52549 49.2624 7.47499 49.1167 6.67914C49.0167 6.13359 49.0627 6.05025 49.3347 6.28536C49.5244 6.44955 49.6143 6.7611 49.5347 6.97772ZM45.4777 7.92341C45.4777 8.07519 45.4253 8.19936 45.361 8.19936C45.2967 8.19936 45.1708 8.07519 45.0808 7.92341C44.9909 7.77164 45.0435 7.64746 45.1975 7.64746C45.3515 7.64746 45.4777 7.77164 45.4777 7.92341ZM2.40653 15.9561C1.916 16.1476 1.84986 16.2911 2.06178 16.7039C2.25492 17.0806 2.5359 17.1822 3.13172 17.0908C3.57595 17.0229 3.93947 16.861 3.93947 16.7313C3.93947 16.6016 3.77041 16.5629 3.56378 16.6457C3.33042 16.739 3.15474 16.5916 3.10077 16.2574C3.02986 15.8195 2.89996 15.7632 2.40653 15.9561ZM0.5 16.3987C0.5 16.5941 0.626202 16.7539 0.780184 16.7539C0.934167 16.7539 0.981262 16.8872 0.884692 17.0503C0.785212 17.2183 0.938929 17.1971 1.23975 17.0011C1.53131 16.811 1.71281 16.4997 1.6427 16.3096C1.47734 15.8595 0.5 15.9357 0.5 16.3987Z" fill="#FA8000"/>
</svg>