<svg xmlns:xlink="http://www.w3.org/1999/xlink" xmlns="http://www.w3.org/2000/svg" width="148" height="148" viewBox="0 0 148 148" fill="none">
<g clip-path="url(#clip0_39_212)">
<path fill-rule="evenodd" clip-rule="evenodd" d="M53.3346 82.3797C49.8178 84.22 45.7806 84.722 41.2823 83.3213C27.3672 78.9876 21.8983 67.9381 21.3583 54.9423C20.5703 35.9661 30.4494 12.8004 39.1202 1.35176C39.5303 0.809053 40.3025 0.704306 40.8421 1.11429C41.3848 1.52432 41.4925 2.29651 41.0824 2.83921C32.666 13.9506 23.0535 36.425 23.817 54.8417C24.3132 66.7745 29.2342 76.9914 42.0154 80.9701C45.8186 82.157 49.2241 81.7219 52.2016 80.1736C51.2197 78.2123 50.3062 76.249 49.4641 74.2869C47.1409 68.8703 43.787 53.8846 45.3238 42.9342C46.4283 35.0794 50.0408 29.3052 57.7132 29.6425C61.9777 29.8309 65.0183 32.5422 66.8334 36.804C69.3322 42.6616 69.4705 51.5723 67.4945 60.0737C65.8505 67.1521 62.7518 73.9352 58.4435 78.4486C57.4946 79.4386 56.4915 80.3252 55.4317 81.0834C69.5658 108.027 96.2467 133.454 123.906 144.46C124.535 144.713 124.846 145.427 124.593 146.059C124.343 146.692 123.626 146.999 122.997 146.749C94.8871 135.561 67.7623 109.763 53.3346 82.3797ZM54.2929 78.8554C53.3742 77.01 52.5178 75.1627 51.7265 73.3165C49.502 68.1251 46.2892 53.7693 47.7622 43.2775C48.6653 36.8387 51.3174 31.8246 57.6056 32.1007C60.9079 32.2477 63.1618 34.4701 64.5711 37.7682C66.1174 41.3979 66.6482 46.2868 66.3008 51.4835C65.7734 59.3731 63.2118 67.9701 58.9082 74.0118C57.5458 75.9265 56.0046 77.5803 54.2929 78.8554Z" fill="black"></path>
<path fill-rule="evenodd" clip-rule="evenodd" d="M102.601 103.801C104.83 118.314 114.022 133.885 124.033 144.73C124.493 145.229 124.461 146.008 123.962 146.468C123.464 146.929 122.685 146.9 122.224 146.401C111.9 135.218 102.467 119.137 100.169 104.176C100.066 103.506 100.527 102.877 101.2 102.774C101.869 102.67 102.498 103.132 102.601 103.801Z" fill="black"></path>
<path fill-rule="evenodd" clip-rule="evenodd" d="M122.061 146.658C111.552 140.413 95.2862 139.294 83.3653 142.161C82.7041 142.32 82.037 141.914 81.8807 141.253C81.7212 140.592 82.1271 139.928 82.7883 139.768C95.2769 136.766 112.308 138 123.318 144.542C123.902 144.888 124.094 145.646 123.749 146.23C123.4 146.814 122.645 147.006 122.061 146.658Z" fill="black"></path>
</g>
<defs>
<clipPath id="clip0_39_212">
<rect width="144.738" height="144.738" fill="white" transform="matrix(0.999851 0.0172371 0.0172371 -0.999851 0 144.717)"></rect>
</clipPath>
</defs>
</svg>