<svg xmlns:xlink="http://www.w3.org/1999/xlink" xmlns="http://www.w3.org/2000/svg" width="261" height="202" viewBox="0 0 261 202" fill="none">
<path d="M154.857 76.0199C140.457 67.1199 134.337 54.6199 130.737 41.0199C128.697 33.4199 127.737 25.7199 128.937 17.9199C129.417 14.6199 130.137 11.4199 131.817 8.41993C132.897 6.61993 134.097 4.91993 135.777 3.41993C138.897 0.619925 143.217 0.119925 147.417 1.71993C150.057 2.71993 152.217 4.41993 154.017 6.21993C157.137 9.41993 159.417 13.0199 161.217 16.8199C166.017 26.8199 167.577 37.3199 167.337 48.1199C167.097 55.3199 166.137 62.5199 164.337 69.5199C164.217 70.0199 164.217 70.4199 164.097 71.0199C167.457 72.4199 171.057 72.7199 174.777 72.8199C190.257 73.4199 205.377 71.5199 220.017 67.3199C224.817 65.9199 229.497 64.3199 234.057 62.4199C242.937 58.9199 250.497 53.8199 256.497 47.4199C257.577 46.3199 258.657 45.2199 259.857 44.1199C259.977 44.0199 260.217 44.0199 260.817 44.0199C260.577 44.7199 260.457 45.2199 260.217 45.7199C255.537 54.0199 248.697 60.7199 239.577 65.9199C228.177 72.3199 215.577 76.3199 202.257 78.5199C191.337 80.3199 180.417 81.1199 169.377 80.0199C166.977 79.8199 164.457 79.3199 161.817 78.9199C161.577 79.4199 161.337 80.0199 161.097 80.6199C157.857 89.7199 154.017 98.5199 148.497 106.82C144.057 113.52 138.897 119.72 132.297 125.12C128.697 128.02 124.737 130.62 120.297 132.52C108.897 137.32 98.457 135.82 89.817 128.02C89.337 127.62 88.857 127.22 88.137 126.62C87.657 127.72 87.297 128.52 86.817 129.42C83.697 136.62 80.217 143.72 75.777 150.52C71.937 156.32 67.497 161.82 61.737 166.52C58.977 168.82 55.977 170.72 52.497 172.22C44.097 175.72 36.057 175.22 28.377 170.62C26.937 169.82 25.737 168.82 24.177 167.82C23.697 168.92 23.337 169.72 22.977 170.62C19.737 178.62 15.777 186.52 10.857 193.92C9.65696 195.82 8.21696 197.62 6.65696 199.32C5.93696 200.22 4.73696 200.82 3.65696 201.52C2.69696 202.02 1.61696 202.02 0.776956 201.22C-0.0630439 200.42 0.296956 199.62 1.01696 198.82C2.45696 197.12 3.77696 195.32 4.97696 193.52C10.977 184.42 15.537 174.82 19.257 165.02C19.617 164.12 19.857 163.22 19.017 162.32C11.217 153.12 7.13696 142.72 4.61696 131.72C1.01696 116.42 0.296956 100.92 2.45696 85.4199C3.17696 80.1199 4.37696 75.0199 7.01696 70.1199C7.97696 68.3199 9.17696 66.5199 10.617 65.0199C14.217 61.3199 19.137 61.1199 23.457 64.3199C26.097 66.3199 27.897 68.7199 29.337 71.4199C32.337 76.6199 34.017 82.2199 35.097 87.9199C37.257 98.8199 37.257 109.72 35.937 120.72C34.377 134.12 31.257 147.32 26.937 160.22C26.457 161.72 26.457 162.82 28.017 163.82C29.937 165.12 31.737 166.62 33.777 167.72C38.337 170.12 43.137 170.32 48.057 168.52C51.417 167.32 54.177 165.52 56.697 163.42C61.137 159.92 64.617 155.82 67.857 151.52C74.577 142.32 79.497 132.42 83.577 122.22C83.937 121.32 84.057 120.62 83.457 119.72C78.057 110.62 75.657 100.82 74.457 90.8199C73.137 80.0199 73.257 69.2199 75.417 58.5199C76.257 54.4199 77.337 50.3199 79.377 46.5199C80.217 44.9199 81.297 43.3199 82.617 42.0199C85.857 38.8199 90.417 38.9199 93.417 42.2199C94.857 43.8199 95.937 45.6199 96.777 47.5199C99.057 52.8199 99.777 58.4199 100.257 64.0199C101.457 81.9199 97.857 99.4199 91.857 116.52C91.617 117.12 91.497 117.72 91.137 118.32C90.657 119.32 90.897 120.22 91.617 121.02C93.297 122.82 94.857 124.82 96.897 126.32C101.577 130.02 107.217 130.92 113.217 128.92C116.337 127.92 119.337 126.32 122.097 124.62C126.897 121.62 130.737 117.82 134.217 113.82C141.537 105.42 146.697 96.0199 150.777 86.2199C152.217 83.1199 153.417 79.6199 154.857 76.0199ZM21.897 157.12C22.257 156.52 22.377 156.32 22.497 156.02C22.737 155.52 22.857 154.92 23.097 154.42C27.537 141.32 30.537 127.92 31.497 114.32C32.217 104.42 31.977 94.5199 29.337 84.7199C28.137 80.3199 26.817 76.0199 24.177 72.0199C22.977 70.3199 21.537 68.7199 19.857 67.3199C18.297 66.0199 16.497 66.1199 15.177 67.7199C13.977 69.1199 12.897 70.7199 12.177 72.3199C9.53696 77.8199 8.57696 83.6199 7.97696 89.5199C6.77696 102.42 7.61696 115.22 10.257 128.02C12.177 137.12 14.937 146.02 19.977 154.32C20.577 155.02 21.057 155.92 21.897 157.12ZM157.017 67.5199C157.377 66.3199 157.617 65.5199 157.737 64.8199C158.217 62.0199 158.817 59.3199 159.177 56.5199C160.497 46.4199 160.137 36.4199 157.137 26.5199C155.577 21.4199 153.417 16.6199 149.937 12.2199C148.617 10.6199 147.057 9.21992 145.377 7.91993C143.097 6.31993 141.537 6.71993 139.977 8.81993C139.377 9.61993 138.897 10.5199 138.657 11.4199C138.057 13.7199 137.337 16.1199 137.097 18.5199C136.257 27.2199 137.697 35.7199 140.577 44.1199C143.097 51.3199 146.817 58.0199 152.697 63.8199C153.897 65.0199 155.337 66.1199 157.017 67.5199ZM88.497 45.3199C88.257 45.3199 87.897 45.3199 87.657 45.4199C87.057 46.3199 86.217 47.1199 85.737 48.0199C84.897 49.9199 83.937 51.9199 83.337 53.9199C80.457 63.5199 79.977 73.3199 80.577 83.2199C81.057 92.2199 82.497 101.22 85.617 109.92C85.857 110.62 86.217 111.32 86.577 112.02C87.297 111.22 87.777 110.42 87.897 109.62C89.337 103.72 91.137 97.9199 92.217 92.0199C94.377 81.3199 95.097 70.5199 93.537 59.8199C93.057 56.2199 91.857 52.6199 90.657 49.1199C90.417 47.7199 89.337 46.5199 88.497 45.3199Z" fill="black"></path>
</svg>