<svg xmlns="http://www.w3.org/2000/svg" width="215" height="240" viewBox="0 0 215 240" fill="none">
<path d="M98.9984 239.064C93.8011 238.774 89.1813 237.037 85.4277 233.274C83.1178 230.958 80.9522 228.352 79.0755 225.457C72.5788 215.469 65.7935 205.77 57.5645 197.085C57.4201 196.94 57.4201 196.94 57.2757 196.795C42.117 177.543 26.3807 158.724 12.3769 138.603C7.46836 131.51 4.14787 123.838 1.26049 115.587C-0.616311 110.086 -0.0388345 104.73 3.28166 99.9534C5.30282 97.0583 7.7571 94.308 10.5001 92.1366C29.4125 76.9372 46.8811 60.1456 64.7829 43.6434C77.0543 32.4972 89.6144 21.7853 102.175 11.0733C105.206 8.46773 108.527 6.00688 111.992 3.9803C121.52 -1.80994 131.048 -1.23092 139.566 5.86212C143.32 8.90199 146.64 12.5209 149.528 16.4293C161.077 31.6287 171.472 47.5518 181.144 64.054C186.919 73.8974 192.983 83.7408 199.046 93.2947C205.687 103.717 211.751 114.574 216.948 125.72C219.258 130.642 221.279 135.708 222.29 141.064C223.445 147.289 222.29 153.079 218.392 158.145C215.793 161.33 212.906 164.515 209.73 166.975C202.078 173.055 193.993 178.701 186.053 184.636C177.102 191.15 168.007 197.519 159.2 204.178C146.207 214.166 132.348 222.996 118.488 231.826C114.59 234.287 110.259 235.879 105.928 237.616C103.907 238.485 101.308 238.63 98.9984 239.064Z" fill="#2B7EFF"/>
<mask id="mask0_39_449" style="mask-type:alpha" maskUnits="userSpaceOnUse" x="0" y="0" width="223" height="240">
<path d="M98.9984 239.064C93.8011 238.774 89.1813 237.037 85.4277 233.274C83.1178 230.958 80.9522 228.352 79.0755 225.457C72.5788 215.469 65.7935 205.77 57.5645 197.085C57.4201 196.94 57.4201 196.94 57.2757 196.795C42.117 177.543 26.3807 158.724 12.3769 138.603C7.46836 131.51 4.14787 123.838 1.26049 115.587C-0.616311 110.086 -0.0388345 104.73 3.28166 99.9534C5.30282 97.0583 7.7571 94.308 10.5001 92.1366C29.4125 76.9372 46.8811 60.1456 64.7829 43.6434C77.0543 32.4972 89.6144 21.7853 102.175 11.0733C105.206 8.46773 108.527 6.00688 111.992 3.9803C121.52 -1.80994 131.048 -1.23092 139.566 5.86212C143.32 8.90199 146.64 12.5209 149.528 16.4293C161.077 31.6287 171.472 47.5518 181.144 64.054C186.919 73.8974 192.983 83.7408 199.046 93.2947C205.687 103.717 211.751 114.574 216.948 125.72C219.258 130.642 221.279 135.708 222.29 141.064C223.445 147.289 222.29 153.079 218.392 158.145C215.793 161.33 212.906 164.515 209.73 166.975C202.078 173.055 193.993 178.701 186.053 184.636C177.102 191.15 168.007 197.519 159.2 204.178C146.207 214.166 132.348 222.996 118.488 231.826C114.59 234.287 110.259 235.879 105.928 237.616C103.907 238.485 101.308 238.63 98.9984 239.064Z" fill="#55BBDA"/>
</mask>
<g mask="url(#mask0_39_449)">
<path d="M235.86 248.617C233.983 248.038 232.54 246.591 231.24 244.998C228.642 241.814 227.054 238.05 225.754 234.286C222.578 224.877 220.846 215.034 219.691 205.19C218.825 197.518 218.247 189.702 217.381 182.03C217.381 181.451 217.237 181.016 216.948 179.713C215.793 181.451 215.215 182.464 214.494 183.477C206.265 196.36 197.314 208.665 186.197 219.377C182.155 223.285 177.68 226.904 173.06 230.089C170.317 231.97 166.996 233.418 163.676 234.286C156.313 236.313 150.105 233.273 146.785 226.47C144.475 221.837 143.608 216.771 143.608 211.704C143.608 205.77 144.042 199.979 144.33 194.044C144.33 193.321 144.475 192.597 144.619 191.004C143.464 192.452 142.742 193.321 142.02 194.189C136.101 202.151 129.749 209.823 122.675 216.771C117.911 221.403 113.002 225.746 107.227 229.075C103.907 231.102 100.442 232.549 96.6884 233.273C90.3362 234.286 84.9945 231.681 82.1071 225.891C80.086 221.837 79.3641 217.35 79.0754 212.863C78.3536 201.572 79.7972 190.425 81.3853 179.279C81.9628 175.66 82.5403 172.041 82.6846 168.133C81.9628 169.146 81.2409 170.16 80.6635 171.173C74.0225 181.885 67.2371 192.162 58.8637 201.572C55.2545 205.625 51.3565 209.388 47.1698 212.863C44.7155 214.889 41.6838 216.481 38.7964 217.495C32.5885 219.666 27.1025 217.639 23.4933 212.139C21.1834 208.665 20.1728 204.756 19.4509 200.848C18.0073 192.162 17.8629 183.477 18.7291 174.937C19.5953 165.093 20.8946 155.105 21.9052 145.262C22.0496 144.104 22.194 142.945 21.7609 141.498C21.039 142.366 20.3172 143.235 19.5953 144.248C12.0881 154.526 3.85908 164.225 -5.81365 172.62C-9.42288 175.66 -13.3208 178.411 -17.2188 181.016C-18.3738 181.74 -19.8175 182.753 -21.4055 181.016C-20.9724 180.437 -20.6837 179.858 -20.1062 179.569C-13.6096 175.371 -7.97919 169.87 -2.63753 164.369C6.89083 154.526 15.2642 143.814 22.7714 132.378C23.782 130.786 24.5039 128.904 24.937 127.022C31.1448 95.7551 39.3739 65.0668 51.934 35.6814C55.6876 26.996 59.7299 18.6002 65.0716 10.9281C67.2371 7.74349 69.6914 4.84837 72.2901 2.09801C73.8781 0.0714264 76.0436 -1.52089 78.4979 -0.362842C81.0966 0.939961 81.2409 3.69032 80.8078 6.00642C79.5085 12.6652 78.3536 19.4687 76.3324 25.9827C65.7934 61.4479 50.7791 94.8865 31.2892 126.299C29.2681 129.483 27.9687 132.813 27.3913 136.576C25.0813 150.328 22.9158 164.225 22.3383 178.266C22.0496 185.938 21.9052 193.61 23.6377 201.137C24.2151 203.598 25.0813 206.059 26.2363 208.23C28.9793 213.442 33.4548 215.179 38.652 212.428C41.6838 210.981 44.7155 208.954 47.1698 206.493C52.2227 201.427 56.9869 196.071 61.4624 190.425C71.1351 177.976 79.0754 164.369 86.4382 150.473C87.0157 149.315 87.5932 147.867 87.8819 146.564C94.0898 119.206 102.752 92.4257 111.125 65.6458C117.333 45.959 123.685 26.1275 131.626 7.01971C133.214 3.1113 135.091 -0.79711 137.112 -4.56076C137.689 -5.71881 138.555 -6.87686 139.71 -7.74539C141.443 -9.19295 143.753 -8.46917 144.186 -6.15308C144.475 -4.56076 144.475 -2.96845 144.475 -1.37613C143.753 8.61202 141.298 18.3107 138.989 28.0093C128.883 71.0018 112.569 111.823 92.213 150.907C90.9137 153.368 89.9031 155.974 89.47 158.724C87.3045 170.16 85.2833 181.451 83.5508 192.886C82.5403 199.979 82.1072 207.217 83.1177 214.31C83.5508 217.06 84.1283 219.811 85.1389 222.416C87.3045 227.917 91.4911 229.944 97.1215 228.496C100.009 227.772 102.896 226.47 105.351 224.877C109.537 221.982 113.58 218.942 117.333 215.613C128.305 205.625 137.256 194.044 145.485 181.885C146.207 180.872 146.64 179.569 146.929 178.411C153.859 142.801 163.964 108.059 175.803 73.7522C182.155 55.2234 188.94 36.9842 196.881 19.0344C198.469 15.5603 200.201 12.0862 202.078 8.75678C203.089 6.87495 204.388 4.99312 206.986 5.7169C209.585 6.44068 209.729 8.75678 209.585 10.7834C209.152 17.2974 208.863 23.8114 207.853 30.1806C201.356 73.3179 188.074 114.284 167.862 152.934C163.243 161.908 157.757 170.304 152.848 179.134C152.126 180.582 151.26 182.03 150.971 183.477C149.383 192.886 147.939 202.295 148.661 211.849C148.95 215.323 149.528 218.942 150.682 222.416C152.992 229.075 157.757 231.247 164.398 228.786C167.285 227.772 170.172 226.325 172.627 224.443C177.246 220.824 181.722 217.06 185.909 212.863C197.747 200.703 207.42 186.951 215.937 172.186C216.804 170.594 217.092 169.002 217.092 167.264C216.948 149.025 220.99 131.655 227.631 114.863C229.075 111.389 230.952 107.915 232.973 104.73C233.983 102.993 235.572 101.545 237.304 100.387C240.191 98.5054 243.367 99.6635 244.089 102.993C244.667 105.743 244.811 108.783 244.522 111.533C243.801 119.35 241.635 127.022 239.036 134.405C234.85 146.854 229.219 158.579 223.011 170.16C222.29 171.462 221.568 173.199 221.568 174.647C222.29 194.623 223.589 214.455 228.497 233.852C229.075 236.458 229.941 239.063 231.096 241.379C232.107 243.696 233.983 246.012 235.86 248.617ZM204.965 12.6652C193.127 29.8911 153.714 150.907 154.147 167.12C163.531 154.815 182.299 111.533 191.395 80.8452C198.036 58.5528 202.944 35.9709 204.965 12.6652ZM77.6317 3.54557C77.343 3.40081 76.9099 3.25606 76.6211 3.1113C75.7549 3.97983 74.6 4.55886 73.8781 5.57215C71.7126 8.32251 69.4027 10.9281 67.6702 13.968C64.2054 19.903 60.8849 25.838 58.1419 32.0625C47.8917 54.4996 40.5288 78.2396 34.6097 102.414C33.3104 107.48 32.2998 112.402 31.1449 117.468C31.2892 117.613 31.578 117.613 31.7223 117.758C32.4442 116.6 33.166 115.442 33.8879 114.284C47.1698 91.5571 58.1419 67.8172 67.0928 43.0639C71.1351 31.9177 75.0331 20.9163 77.0542 9.19105C77.4873 7.45398 77.4873 5.42739 77.6317 3.54557ZM96.8328 129.773C98.854 125.575 100.731 121.377 102.752 117.324C118.777 82.5823 131.048 46.5381 138.844 9.04629C139.566 5.86166 139.999 2.67703 140.577 -0.507597C133.647 7.74349 101.02 105.454 96.8328 129.773ZM239.903 104.585C232.107 108.783 221.568 145.551 222.001 159.013C222.29 158.724 222.578 158.579 222.723 158.29C229.652 144.248 235.427 129.917 238.603 114.573C239.325 111.389 239.47 108.349 239.903 104.585Z" fill="white"/>
</g>
</svg>