<svg xmlns="http://www.w3.org/2000/svg" width="19" height="15" viewBox="0 0 19 15" fill="none">
<path d="M18.3842 1.11315C18.2602 0.988176 18.1128 0.888984 17.9503 0.821292C17.7878 0.753601 17.6135 0.71875 17.4375 0.71875C17.2615 0.71875 17.0872 0.753601 16.9247 0.821292C16.7623 0.888984 16.6148 0.988176 16.4908 1.11315L6.55752 11.0598L2.38418 6.87315C2.25549 6.74883 2.10356 6.65108 1.93709 6.58547C1.77062 6.51987 1.59285 6.48769 1.41394 6.49079C1.23504 6.49388 1.05849 6.53219 0.894386 6.60351C0.730282 6.67484 0.581832 6.77779 0.457514 6.90648C0.333196 7.03518 0.235444 7.1871 0.169839 7.35357C0.104234 7.52005 0.0720598 7.69781 0.0751551 7.87672C0.0782504 8.05563 0.116554 8.23217 0.187879 8.39628C0.259203 8.56038 0.362152 8.70883 0.490848 8.83315L5.61085 13.9531C5.7348 14.0781 5.88227 14.1773 6.04475 14.245C6.20722 14.3127 6.3815 14.3475 6.55752 14.3475C6.73353 14.3475 6.9078 14.3127 7.07028 14.245C7.23276 14.1773 7.38023 14.0781 7.50418 13.9531L18.3842 3.07315C18.5195 2.94829 18.6275 2.79676 18.7014 2.62809C18.7753 2.45942 18.8134 2.27728 18.8134 2.09315C18.8134 1.90901 18.7753 1.72687 18.7014 1.55821C18.6275 1.38954 18.5195 1.238 18.3842 1.11315Z" fill="#2B7EFF"/>
</svg>