<svg xmlns:xlink="http://www.w3.org/1999/xlink" width="48" height="48" viewBox="0 0 48 48" fill="none" xmlns="http://www.w3.org/2000/svg">
<path fill-rule="evenodd" clip-rule="evenodd" d="M18.5145 7.51149C19.6719 5.69639 21.6971 4.50033 24.0001 4.50033C26.303 4.50033 28.3282 5.69646 29.4859 7.5116C29.9751 8.27895 30.8918 8.65868 31.7806 8.46212C33.8825 7.9972 36.1603 8.58339 37.7888 10.2118C39.417 11.8403 40.0033 14.1179 39.5383 16.22C39.3418 17.1086 39.7216 18.0253 40.4889 18.5147C42.3041 19.6722 43.5001 21.6974 43.5001 24.0003C43.5001 26.3033 42.3041 28.3285 40.4889 29.4859C39.7216 29.9753 39.3418 30.8921 39.5383 31.7806C40.0033 33.8827 39.4172 36.1603 37.7888 37.7888C36.1603 39.4172 33.8825 40.0035 31.7806 39.5386C30.8918 39.3421 29.9751 39.7217 29.4859 40.4891C28.3282 42.3041 26.303 43.5003 24.0001 43.5003C21.6971 43.5003 19.6719 42.3043 18.5145 40.4891C18.0251 39.7219 17.1083 39.3421 16.2197 39.5388C14.1177 40.0035 11.84 39.4175 10.2115 37.789C8.58301 36.1605 7.99684 33.8827 8.46181 31.7808C8.65837 30.8921 8.27864 29.9753 7.51132 29.4859C5.69617 28.3285 4.50008 26.3033 4.50008 24.0003C4.50008 21.6974 5.69619 19.6722 7.51132 18.5147C8.27864 18.0253 8.65837 17.1086 8.46181 16.2199C7.99686 14.1179 8.58304 11.8401 10.2115 10.2117C11.84 8.58319 14.1177 7.99702 16.2197 8.46197C17.1083 8.65853 18.0251 8.27882 18.5145 7.51149V7.51149ZM24.0001 0.166992C20.6777 0.166992 17.7061 1.66373 15.7212 4.01306C12.6563 3.75534 9.49665 4.79826 7.14738 7.14754C4.79811 9.49681 3.75518 12.6565 4.01291 15.7213C1.6635 17.7063 0.166748 20.678 0.166748 24.0003C0.166748 27.3227 1.6635 30.2943 4.01288 32.2794C3.75516 35.3441 4.79808 38.5038 7.14736 40.8531C9.49663 43.2024 12.6563 44.2452 15.7212 43.9876C17.7061 46.3369 20.6777 47.8337 24.0001 47.8337C27.3224 47.8337 30.2942 46.3369 32.2791 43.9874C35.3439 44.2452 38.5035 43.2022 40.8528 40.8529C43.202 38.5038 44.245 35.3441 43.9874 32.2794C46.3367 30.2943 47.8334 27.3227 47.8334 24.0003C47.8334 20.678 46.3367 17.7063 43.9874 15.7214C44.245 12.6566 43.202 9.49694 40.8528 7.14771C38.5035 4.79846 35.3439 3.75556 32.2791 4.01322C30.2942 1.66379 27.3224 0.166992 24.0001 0.166992V0.166992ZM34.1988 21.199C35.0449 20.353 35.0449 18.9811 34.1988 18.1349C33.3527 17.2888 31.9808 17.2888 31.1347 18.1349L21.8334 27.436L16.8655 22.4683C16.0193 21.6222 14.6475 21.6222 13.8013 22.4683C12.9552 23.3144 12.9552 24.6863 13.8014 25.5324L20.3014 32.0324C21.1474 32.8785 22.5194 32.8785 23.3655 32.0324L34.1988 21.199Z" fill="#2B7EFF"></path>
</svg>