<svg xmlns:xlink="http://www.w3.org/1999/xlink" xmlns="http://www.w3.org/2000/svg" width="1920" height="1325" viewBox="0 0 1920 1325" fill="none">
<path d="M627.918 590.421H1287.65V750.895H621.381C621.381 750.895 627.565 595.458 627.918 590.421Z" fill="url(#paint0_linear_39_218)"></path>
<path d="M1832.72 555.733C1825.65 553.214 1819.47 550.276 1814.17 546.918C1792.96 533.627 1782.19 513.62 1782.19 486.897C1782.19 468.15 1787.13 430.515 1797.03 373.992C1801.97 349.649 1806.39 324.464 1810.46 298.162C1814.34 271.859 1816.46 248.634 1816.46 228.208C1816.46 156.155 1788.55 100.053 1732.54 60.0392C1676.71 20.0255 1601.09 0.158203 1506.21 0.158203H1435.89C1540.84 78.5066 1543.31 197.988 1538.54 250.454C1538.54 251.293 1538.72 251.992 1538.72 252.832C1538.72 267.662 1534.83 302.639 1526.88 357.483C1518.05 427.996 1513.45 473.886 1513.45 495.012C1513.45 539.643 1526.53 576.579 1552.85 605.54C1579 634.501 1618.93 652.969 1672.29 660.804V663.182C1618.76 671.017 1579 689.485 1552.85 718.446C1526.53 747.407 1513.45 784.342 1513.45 828.972C1513.45 850.098 1517.87 895.988 1526.88 966.502C1534.83 1021.35 1538.72 1056.6 1538.72 1072.27C1538.72 1093.4 1531.83 1109.49 1517.87 1120.4C1503.91 1131.31 1481.3 1136.91 1449.67 1136.91H1396.14V1323.83H1506.03C1601.09 1323.83 1676.53 1303.82 1732.36 1263.95C1788.19 1223.93 1816.29 1167.97 1816.29 1095.78C1816.29 1075.35 1814.34 1052.13 1810.28 1025.82C1806.39 999.52 1801.8 974.337 1796.85 949.993C1786.96 893.61 1782.01 856.394 1782.01 838.346C1782.01 804.068 1801.09 780.424 1839.08 767.133C1890.14 749.365 1920 706.973 1920 662.902V657.585C1920.35 612.675 1884.48 574.34 1832.72 555.733Z" fill="#2B7EFF"></path>
<path d="M381.455 1072.41C381.455 1056.74 385.342 1021.49 393.293 966.642C402.127 896.128 406.72 850.238 406.72 829.112C406.72 784.482 393.646 747.546 367.32 718.585C340.995 689.624 301.242 671.157 247.884 663.322V660.943C301.418 653.108 341.172 634.641 367.32 605.68C393.469 576.719 406.72 539.783 406.72 495.152C406.72 474.026 402.303 428.136 393.293 357.623C385.342 302.779 381.455 267.942 381.455 252.972C381.455 231.006 388.346 214.637 402.303 203.584C416.261 192.671 438.876 187.075 470.679 187.075H524.037V0.158203H414.141C319.086 0.158203 243.644 20.1654 187.812 60.0392C131.981 100.053 103.889 156.015 103.889 228.208C103.889 248.634 105.832 271.859 109.896 298.162C113.783 324.464 118.2 349.649 123.324 373.992C133.218 430.375 138.165 468.01 138.165 486.897C138.165 513.62 127.564 533.487 106.185 546.918C100.885 550.276 94.7011 553.214 87.6339 555.733C35.8663 574.34 -6.10352e-05 612.675 -6.10352e-05 657.585V662.902C-6.10352e-05 706.973 30.0358 749.505 80.92 767.133C118.906 780.285 137.988 804.068 137.988 838.346C137.988 856.394 133.041 893.61 123.147 949.993C118.2 974.337 113.783 999.52 109.719 1025.82C105.832 1052.13 103.712 1075.35 103.712 1095.78C103.712 1167.83 131.628 1223.93 187.636 1263.95C243.467 1303.96 319.086 1323.83 413.964 1323.83H437.11C374.034 1204.21 381.455 1072.41 381.455 1072.41Z" fill="#2B7EFF"></path>
<path d="M1435.89 0.306641H1396.31V1.56533C1284.47 8.42082 907.788 73.0589 835.172 627.514C774.747 1088.09 483.222 1133.84 470.855 1135.66L473.328 1135.38L473.682 1137.2H470.501C438.875 1137.2 416.084 1131.74 402.126 1120.69C388.345 1109.78 381.277 1093.69 381.277 1072.56C381.277 1072.56 373.857 1204.49 437.109 1324.11H507.074L523.859 1323C611.493 1308.72 1006.73 1213.87 1080.94 647.8C1136.59 223.459 1381.12 189.602 1413.63 187.363H1449.49C1481.12 187.363 1503.91 192.82 1517.69 203.872C1530.94 214.365 1537.66 230.175 1538.19 250.741C1543.31 198.136 1540.84 78.5151 1435.89 0.306641Z" fill="url(#paint1_linear_39_218)"></path>
<defs>
<linearGradient id="paint0_linear_39_218" x1="1528.08" y1="-18.6539" x2="1360.65" y2="304.057" gradientUnits="userSpaceOnUse">
<stop stop-color="#94694C"></stop>
<stop offset="1" stop-color="#FA8000"></stop>
</linearGradient>
<linearGradient id="paint1_linear_39_218" x1="1188.16" y1="217.974" x2="849.207" y2="1269" gradientUnits="userSpaceOnUse">
<stop stop-color="#F04E23"></stop>
<stop offset="0.0274" stop-color="#F35B1A"></stop>
<stop offset="0.0782" stop-color="#F66C0E"></stop>
<stop offset="0.1415" stop-color="#F87706"></stop>
<stop offset="0.2302" stop-color="#FA7E01"></stop>
<stop offset="0.4766" stop-color="#FA8000"></stop>
<stop offset="0.6984" stop-color="#FA7E00"></stop>
<stop offset="0.8087" stop-color="#FB7600"></stop>
<stop offset="0.8943" stop-color="#FC6900"></stop>
<stop offset="0.9668" stop-color="#FE5600"></stop>
<stop offset="1" stop-color="#FF4B00"></stop>
</linearGradient>
</defs>
</svg>