<svg xmlns:xlink="http://www.w3.org/1999/xlink" xmlns="http://www.w3.org/2000/svg" width="112" height="143" viewBox="0 0 112 143" fill="none">
<path d="M60.2223 94.0556C62.3397 93.6996 64.5509 93.2259 66.692 92.9679C70.8565 92.4718 74.2007 93.6438 76.4191 96.7394C79.8881 101.461 81.311 106.833 81.8867 112.245C82.1498 114.343 82.0363 116.402 82.158 118.422C82.2302 119.226 82.1848 120.05 82.3746 120.834C82.7069 122.206 83.7439 122.95 84.9914 123.046C86.5918 123.083 87.508 122.317 88.0941 121.198C88.446 120.629 88.6565 119.982 88.7494 119.354C90.3777 109.899 88.665 100.801 82.6474 92.6318C78.9895 87.636 73.2432 85.6436 66.3959 86.1827C63.9959 86.3822 61.408 86.8172 59.0791 87.3108C48.8226 89.4432 38.5372 88.928 28.2725 86.9812C22.2456 85.8522 17.1803 83.1332 13.054 79.2363C8.59751 74.9868 4.89326 70.3048 1.54189 65.5635C-5.98631 55.1994 -13.5382 44.7374 -21.278 34.5109C-23.4252 31.7094 -26.1368 29.1049 -28.5895 26.5588C-29.2499 25.8537 -30.2631 25.2079 -31.2289 24.7582C-31.653 24.5235 -32.6178 24.5837 -33.0409 24.8588C-33.4639 25.134 -33.6507 25.8795 -33.532 26.3696C-33.1534 27.4281 -32.7747 28.4866 -32.0431 29.4858C-28.2419 35.5797 -24.323 41.6538 -20.4279 47.6299C-15.6124 54.8795 -10.6792 62.1093 -5.74605 69.3391C-2.51231 74.1002 1.14448 78.5861 5.34197 82.7772C11.3555 88.9072 19.0354 92.8188 28.3343 94.3159C38.9984 95.8895 49.6367 96.3453 60.2223 94.0556Z" fill="white"></path>
<path d="M99.0665 100.786C99.7309 103.531 100.395 106.276 101.06 109.02C101.535 110.981 102.643 112.019 104.478 112.016C106.196 112.033 107.653 110.972 108.073 109.167C108.236 108.324 108.376 107.382 108.303 106.578C107.224 96.5584 104.64 86.8934 98.5735 78.0178C95.0096 72.9042 90.5056 68.4586 84.5922 65.2702C77.4065 61.3775 69.7802 60.7214 61.8308 63.282C58.4206 64.3654 55.0578 65.6449 51.5764 66.4342C48.3302 67.184 45.0366 67.7377 41.7656 67.8796C35.1061 68.1831 29.6415 65.8373 25.7257 61.2929C23.8148 58.9618 22.2567 56.5713 20.5573 54.1026C14.3014 44.4429 8.39831 34.7237 1.29625 25.6142C0.777246 24.9874 0.375865 24.3408 -0.237039 23.8317C-0.684861 23.499 -1.48556 23.2255 -1.95608 23.3046C-2.4266 23.3837 -2.98999 24.0905 -3.0127 24.5024C-3.08082 25.738 -3.0313 26.9539 -2.65262 28.0124C-1.30404 31.5602 -0.0968291 35.0298 1.65107 38.2044C5.71336 45.3766 9.98716 52.4112 14.261 59.4458C15.1112 60.9351 16.1967 62.3849 17.2822 63.8346C24.3842 72.9441 34.6985 76.1067 47.3096 74.5986C52.7681 73.885 57.8241 72.0148 62.81 70.3605C63.8212 69.9864 64.9738 69.6906 65.985 69.3166C70.4302 67.9572 74.7143 68.4611 78.7426 70.4363C83.1713 72.5481 86.5897 75.5439 89.3973 79.0505C93.503 84.3791 96.3621 90.1213 98.0687 96.1593C98.4484 97.7277 98.8044 99.1981 99.0665 100.786C99.1841 100.766 99.1841 100.766 99.0665 100.786Z" fill="white"></path>
</svg>