<?xml version="1.0" encoding="utf-8" ?>
<svg xmlns="http://www.w3.org/2000/svg" xmlns:xlink="http://www.w3.org/1999/xlink" width="1024" height="1024">
	<path fill="#242122" d="M844.033 590.75L844.946 590.705C846.206 590.913 847.149 591.82 847.66 592.946C848.473 594.74 847.518 596.806 846.773 598.478C844.539 603.494 840.039 611.674 834.75 613.713C833.972 613.853 833.515 613.738 832.75 613.591C832.113 613.11 831.386 612.621 831.061 611.854C830.175 609.76 831.29 607.448 832.318 605.653C834.729 601.446 839.085 592.09 844.033 590.75Z"/>
	<path fill="#242122" d="M831.295 565.75C832.828 565.828 833.11 565.743 834.313 566.655C834.558 569.848 833.678 573.333 832.816 576.399C826.898 597.448 812.487 612.408 793.75 622.887C792.966 622.996 792.397 622.955 791.617 622.878L790.804 621.25C790.886 620.75 790.786 620.182 791.051 619.75C792.443 617.482 798.52 614.685 800.867 612.891C806.122 608.874 811.024 603.925 815.086 598.722C818.643 594.166 821.937 588.988 824.33 583.718C825.259 581.672 826.204 579.576 826.826 577.414C827.871 573.778 828.242 568.125 831.295 565.75Z"/>
	<path fill="#242122" d="M270.276 434.691C272.023 435.052 273.098 435.231 274.366 436.533C274.591 437.947 274.602 438.798 273.75 440.022C272.64 441.616 269.814 442.787 268.076 443.645C256.044 449.584 242.597 452.712 229.509 455.309C223.544 456.493 217.635 457.837 211.557 458.258L211.013 458.192C209.346 457.935 208.671 457.712 207.688 456.395L208.032 454.75C212.24 450.86 219.204 449.333 224.544 447.341C233.941 443.835 243.319 439.981 253.051 437.477C258.729 436.016 264.446 435.215 270.276 434.691Z"/>
	<path fill="#242122" d="M679.522 477.091C682.516 477.04 685.005 477.208 687.839 478.344C691.49 479.806 694.292 482.913 695.719 486.531C697.28 490.491 697.054 495.138 695.195 498.945C692.724 504.003 688.182 506.488 683.061 508.168C680.357 508.102 677.782 507.939 675.25 506.846C671.398 505.184 668.115 501.577 666.609 497.694C665.154 493.941 665.513 490.237 667.272 486.649C669.531 482.039 674.836 478.742 679.522 477.091Z"/>
	<path fill="#242122" d="M174.14 352.83C188.138 359.071 202.081 365.707 216.75 370.281L260.845 382.06C265.163 383.427 275.322 386.453 277.169 390.893C277.757 392.31 277.294 393.211 276.75 394.53C275.879 395.01 275.11 395.298 274.125 395.404C264.369 396.449 253.863 392.614 244.75 389.506C228.529 383.972 212.769 377.551 197.851 369.045C189.435 364.247 181.783 358.743 174.14 352.83Z"/>
	<path fill="#242122" d="M213.927 285.25L214.72 285.109C219.647 286.478 225.531 295.527 229.005 299.25C231.952 302.408 235.141 305.32 238.417 308.131C252.332 320.073 267.192 330.748 282.487 340.845L292.722 347.234C295.208 348.653 298.201 350.004 300.426 351.769C301.869 352.914 302.212 354.256 302.428 356L301.296 357.25C299.289 357.816 297.344 358.092 295.25 357.957C291.56 357.721 287.703 355.941 284.438 354.314C270.75 347.494 259.474 336.166 248.295 325.963C239.486 317.923 230.334 310.049 222.789 300.763C219.987 297.315 213.472 289.7 213.927 285.25Z"/>
	<path fill="#242122" d="M720.179 386.638C724.477 385.918 729.235 386.796 733.256 388.324C737.087 389.78 740.396 392.244 741.971 396.132C744.318 401.93 742.911 408.294 740.573 413.845C736.941 422.467 713.803 455.809 704.967 458.75C703.268 459.316 702.287 458.597 700.75 457.938C699.999 457.049 699.155 456.151 698.982 454.952C698.764 453.451 699.501 451.767 700.425 450.609C703.163 447.176 706.774 444.271 709.687 440.938C717.589 431.9 724.54 421.857 730.462 411.424C731.821 408.721 733.484 405.406 733.403 402.298C733.366 400.891 732.575 399.187 731.519 398.27C729.017 396.098 723.024 396.286 719.986 396.686C709.668 398.047 700.472 401.721 691.352 406.611C686.447 409.241 681.745 412.239 677.148 415.37L667.093 422.81C666.192 423.482 664.075 425.158 663 425.394C662.43 425.519 661.833 425.427 661.25 425.444C659.971 424.623 659.921 424.694 659.503 423.25C659.715 422.245 659.935 421.449 660.523 420.592C663.493 416.259 667.672 412.71 671.692 409.393C685.609 397.909 702.322 389.55 720.179 386.638Z"/>
	<path fill="#242122" d="M660.232 251.695C663.27 250.879 668.274 251.552 671.428 251.706C687.023 252.472 703.03 254.63 717.917 259.483C741.026 267.015 760.815 280.877 776.949 298.914C788.402 311.716 797.488 326.909 805 342.299C818.773 370.516 827.746 400.844 832.396 431.858C834.958 448.941 836.295 466.507 835.283 483.767C832.468 531.764 811.617 577.123 775.545 609.126C742.686 638.278 698.98 655.934 654.657 653.021C647.977 652.582 641.236 651.861 634.688 650.445C632.307 649.93 629.448 649.24 627.871 647.223C626.807 645.862 626.679 644.391 626.9 642.75C627.501 641.919 627.82 641.185 628.874 640.889C630.249 640.505 632.525 640.991 633.958 641.147L645.466 642.373C672.802 644.751 698.893 641.342 724.214 630.504L728.969 628.325C768.548 609.153 800.991 573.827 815.475 532.1C829.461 491.812 827.102 448 817.313 407.069C812.477 386.849 805.767 366.69 796.62 348C779.242 312.494 755.711 283.013 717.085 269.887C678.037 256.617 632.111 258.136 597.439 282.225C592.62 285.573 587.975 289.122 583.66 293.106C580.037 296.451 576.613 302.011 572.25 304.174C570.909 303.904 570.835 303.75 569.876 302.75C569.878 298.264 573.547 293.783 576.284 290.454C597.14 265.085 628.594 254.765 660.232 251.695Z"/>
	<path fill="#242122" d="M616.894 132.195C618.86 132.299 620.879 132.382 622.77 132.979C627.155 134.363 630.824 137.651 632.82 141.772C634.87 146.007 635.576 151.771 633.837 156.25C631.523 162.211 626.21 168.008 620.25 170.377C615.441 172.289 610.582 171.874 605.946 169.793L605.284 169.491C601.028 175.665 597.652 182.625 593.771 189.071C577.201 216.592 562.479 244.907 551.768 275.265C547.779 286.572 544.822 297.925 541.877 309.523C542.442 311.169 552.802 316.299 555.025 317.791C558.142 319.884 561.084 322.153 563.894 324.643C574.944 334.435 581.838 345.703 589.203 358.283C592.119 363.264 595.52 367.999 598.279 373.061C603.754 383.109 606.92 395.024 607.585 406.42C609.623 441.352 597.751 473.053 574.533 499.016C582.306 503.561 589.205 511.427 595.309 517.966C611.29 535.084 625.727 552.883 637.87 572.967C643.429 582.161 648.59 591.295 652.39 601.368C651.93 603.548 649.835 606.199 648.489 607.964C644.963 612.587 640.892 616.909 637.089 621.311L618.905 642.464C603.65 659.972 589.304 677.829 572.257 693.707C568.139 697.543 562.509 704.003 556.75 704.823C555.637 704.377 554.862 704.115 554.059 703.178C551.02 699.631 552.29 688.378 552.405 683.743L544.258 685.679C543.09 702.194 540.144 719.576 536.01 735.603L529.243 757.97C528.692 759.802 527.218 763.098 527.73 764.834C528.273 766.672 530.198 769.118 531.202 770.806L540.967 787.231L553.8 812.063C557.875 820.11 573.421 848.3 572.523 855.5C572.351 856.881 571.779 857.359 570.77 858.25C569.652 858.506 568.933 858.691 567.791 858.384C563.448 857.216 558.571 848.57 556.37 845.065C550.842 836.263 546.381 826.673 541.492 817.5L521.26 779.601C520.289 781.163 519.767 783.071 518.988 784.75C516.804 789.458 513.951 794.763 510.013 798.25C503.83 803.726 495.217 803.453 487.516 802.849C453.933 800.214 428.043 781.024 406.724 756.243C403.423 755.945 399.838 756.398 396.525 756.556L375.829 757.637C374.638 762.581 372.72 767.557 371.033 772.361L353.745 815.231L349.852 825.996C349.103 828.403 348.635 830.973 347.603 833.278C347.136 834.321 346.344 835.698 345.391 836.374C344.062 837.316 343.268 837.06 341.75 836.975C340.695 836.245 340.063 835.995 339.585 834.758C338.938 833.085 339.32 830.952 339.614 829.227C340.551 823.72 342.52 818.193 344.231 812.872L356.979 774.393L361.781 759.652C362.817 756.434 363.679 752.868 365.584 750.04C370.041 743.423 387.437 741.646 394.966 740.325L370.676 703.267C364.943 710.826 357.646 715.999 350.359 721.867C346.386 725.066 342.405 728.782 337.959 731.295C330.125 735.722 318.936 737.438 310.287 734.684C307.072 733.661 304.064 731.872 302.512 728.75C301.308 726.329 301.098 723.213 301.983 720.656C304.001 714.822 309.644 711.908 314.764 709.233L310.765 696.954C305.924 696.254 300.48 695.006 297.409 690.853C295.143 687.789 294.811 684.395 295.447 680.746C297.147 671 304.337 661.765 310.097 653.956C319.699 640.935 329.861 628.464 341.829 617.499C345.713 613.941 350.046 610.842 354.362 607.839C352.617 581.449 352.67 555.155 353.992 528.75L355.355 506.833C355.689 502.845 356.519 498.493 356.489 494.53C356.473 492.38 352.997 488.047 351.856 485.886C341.049 465.429 342.186 438.135 349.096 416.639C355.603 396.398 367.528 377.632 384.367 364.423C386.622 362.654 388.918 360.951 391.414 359.534C393.089 358.582 396.49 357.236 397.739 355.869C398.547 354.985 399.249 352.75 399.857 351.582C401.29 348.832 402.901 346.223 404.64 343.657C412.821 331.587 426.589 321.374 439.548 314.796C440.364 314.382 439.271 299.443 439.153 297.25C437.166 260.26 448.089 222.654 464.709 189.875C468.256 182.881 471.892 175.023 477.107 169.116C479.662 166.222 479.714 164.204 480.904 160.728C482.375 156.431 485.347 152.799 488.996 150.135C491.966 147.967 495.581 146.814 499.25 147.436C502.959 148.065 506.028 149.945 508.112 153.115C510.473 156.704 511.144 161.766 510.16 165.931C508.892 171.3 505.508 175.815 500.843 178.716C496.648 181.325 491.436 181.567 486.731 180.43L486.088 180.266C474.325 207.23 463.698 234.441 457.265 263.25C453.844 278.576 452.029 293.9 450.851 309.533C476.903 301.842 502.689 299.187 529.447 305.568C530.224 295.044 530.741 284.594 532.845 274.223C537.649 250.541 547.583 227.498 558.791 206.176C564.485 195.346 570.556 184.446 577.521 174.374C580.891 169.502 584.369 164.788 588.25 160.307C590.948 157.191 594.338 154.254 596.615 150.845C598.69 147.74 598.76 143.911 601.158 140.685C604.957 135.573 610.755 133.097 616.894 132.195ZM472.13 475.871C458.942 495.905 440.539 512.569 416.367 517.533C400.943 520.701 385.701 518.389 372.469 509.614C368.978 507.298 365.424 504.584 362.631 501.45C358.647 542.929 357.796 584.924 362.841 626.346C366.803 658.867 373.468 689.191 389.385 718.164C393.73 726.074 398.37 733.948 404.114 740.936C412.667 751.341 421.467 762.021 431.75 770.755C446.947 783.663 467.626 793.255 487.62 795.062C493.238 795.57 500.629 795 505.084 791.192C511.466 785.736 514.379 775.14 517.044 767.47L525.291 741.07C527.486 733.251 529.51 725.505 529.854 717.362C528.6 715.001 527.335 712.65 525.836 710.433C523.923 707.606 518.214 701.585 518.924 698.25L520.5 697.029C523.232 697.446 525.763 700.977 527.396 703.19L531.682 709.344L532.759 697.336C529.97 694.808 527.545 692.835 526.126 689.25C526.908 687.923 527.155 687.756 528.5 686.984C530.41 687.998 531.918 690.601 533.227 692.315L533.494 685.595C527.104 684.033 523.528 681.367 520.119 675.75C514.644 666.726 514.118 654.261 516.613 644.21C517.492 640.669 519.113 636.933 522.319 634.908C524.161 633.745 526.693 633.077 528.835 633.705C531.617 634.52 534.069 636.232 536.515 637.73L536.744 623.242C536.769 621.489 537.155 618.667 536.626 617.046C536.101 615.438 533.669 612.918 532.676 611.378L524.297 597.158C523.506 595.822 520.709 592.282 521.057 590.75C521.157 590.31 521.664 590.083 521.967 589.75C523.566 589.567 523.965 589.503 525.436 590.101C527.764 592.711 529.247 595.942 530.893 599L537.566 611.717L537.395 597.189C537.387 594.731 537.62 591.874 537.058 589.473C536.096 585.369 532.231 579.884 529.799 576.434C528.153 574.097 525.742 571.704 525.554 568.75L526.634 567.681C528.689 567.788 529.637 568.359 531.076 569.903C533.37 572.364 535.215 575.321 537.03 578.144C536.679 574.237 536.739 569.416 535.41 565.75C534.051 561.999 531.082 558.15 528.608 555.056C527.204 553.301 525.178 551.394 524.178 549.398C523.63 548.304 523.791 548.175 524.25 547.138C525.702 546.566 526.317 546.335 527.909 546.647C531.243 549.656 533.829 553.863 536.303 557.601L533.352 535.871C533.017 533.024 533.091 527.729 531.75 525.418C529.739 525.072 529.014 525.138 527.462 523.75C526.932 522.225 526.769 521.177 526.75 519.562C525.085 518.599 522.986 518.323 521.131 517.862C517.835 517.042 514.61 516.139 511.489 514.782C493.773 507.081 481.829 492.027 472.13 475.871ZM537.155 346.184C519.157 348.194 504.184 358.832 493.078 372.725C476.698 393.215 467.427 420.746 470.471 446.946C472.924 468.063 484.413 487.813 501.004 500.913L505.5 504.054C514.523 509.606 523.302 512.168 533.878 512.226C542.361 510.944 551.071 508.637 558.409 504.035C565.949 499.306 573.066 490.961 578.304 483.833C595.557 460.351 604.529 428.879 600.044 399.891C597.396 382.776 589.767 367.785 575.549 357.557C564.949 349.931 550.167 345.377 537.155 346.184ZM422.642 355.703C400.996 358.081 385.49 369.634 372.129 386.25C357.135 404.896 348.051 432.706 350.633 456.601C352.381 472.775 359.015 490.197 372.057 500.587C381.453 508.072 391.742 511.29 403.603 512.051C425.335 510.253 443.454 500.786 457.641 484.076C461.982 478.963 465.394 472.983 468.943 467.31L468.702 466.722C461.677 449.12 462.272 429.256 466.54 411.068C467.246 408.06 468.122 405.072 469.175 402.167C469.463 401.372 470.586 399.18 470.588 398.454C470.593 397.175 468.393 393.223 467.845 391.868C462.246 378.008 455.038 365.453 440.658 359.296C434.87 356.819 428.884 356.006 422.642 355.703ZM491.401 310.702C460.431 313.067 432.87 322.392 412.217 346.682C410.938 348.187 409.533 349.82 408.658 351.593C422.079 347.978 435.308 347.928 447.634 355.049C460.953 362.743 468.194 375.779 474.396 389.326C478.373 382.231 482.411 375.715 487.422 369.279C500.251 353.671 516.31 341.053 537.079 339.149C549.36 338.023 559.322 341.543 570.305 346.252C562.765 336.015 551.644 326.89 540.749 320.407C540.377 323.819 540.654 331.355 537.75 333.553C536.694 334.352 535.239 334.572 534 334.071C532.524 333.474 531.735 332.171 531.266 330.701C529.861 326.301 530.332 320.189 530.209 315.535C518.228 310.849 504.252 309.179 491.401 310.702ZM596.384 531.763L607.161 565.167C609.705 565.308 612.927 564.99 614.909 566.75L615.988 568.75C615.499 569.719 615.38 570.181 614.25 570.534L610.303 571.176C609.954 571.819 610.215 572.034 610.425 572.736C611.641 576.813 612.798 582.507 616 585.454L619.454 588.68C614.996 595.01 609.515 600.667 604.099 606.185L565.77 642.056C559.589 647.783 553.795 654.404 547.296 659.719C546.051 660.737 544.913 661.447 543.312 661.728C542.157 661.93 541.617 661.63 540.511 661.25C535.969 656.148 535.288 643.663 527.75 642.212C526.359 642.714 525.656 643.439 525.01 644.75C522.187 650.477 523.161 661.106 525.448 666.897C527.277 671.526 530.634 675.365 535.25 677.32C541.077 679.789 547.196 677.915 553.131 676.786C553.245 673.56 552.771 668.166 554.411 665.449C555.712 664.688 556.482 664.454 558 664.868C559.506 665.279 560.377 666.315 560.89 667.75C561.821 670.353 561.157 674.293 560.942 677L559.665 693.25L559.75 694.888C563.404 691.926 566.548 687.746 569.863 684.365C573.73 680.419 578.565 676.599 581.897 672.276C581.11 668.451 577.71 653.524 578.943 650.25C580.048 649.533 580.782 649.403 582.095 649.812C583.247 650.172 583.672 650.453 584.125 651.572C586.012 656.231 585.762 662.655 586.483 667.657C589.233 664.674 592.033 661.755 594.327 658.395L593.2 646.75C592.857 644.174 590.937 639.052 591.805 636.75C592.707 636.036 593.092 635.806 594.25 635.762C596.461 637.058 597.181 638.205 597.847 640.744C598.821 644.453 599.043 648.482 599.14 652.306C603.977 645.999 610.021 640.69 614.728 634.396C615.345 633.57 615.715 633.249 615.652 632.181C615.413 628.128 613.297 624.696 614.75 620.523C616.085 619.479 616.287 619.529 618 619.429C618.967 620.021 619.045 620.099 619.337 621.257L620.346 628.562L643.651 600.485C634.833 582.633 625.092 566.289 612.816 550.543C607.587 543.836 602.595 537.607 596.384 531.763ZM557.24 512.047L544.596 517.274C546.075 523.324 547.441 529.362 548.122 535.559C548.499 538.991 548.595 542.435 548.668 545.884C548.68 546.465 548.521 548.561 548.721 548.992C549.005 549.607 550.887 551.047 551.447 551.562L564.297 562.831C570.826 568.592 576.983 574.933 583.003 581.218C588.365 586.818 593.888 592.525 598.524 598.75L599.453 599.338C603.085 596.507 606.275 592.978 609.53 589.725L609.228 589.214C606.537 584.584 604.467 579.529 602.106 574.72C597.553 565.447 592.659 556.161 586.866 547.605C581.07 539.045 574.394 531.015 567.504 523.315C564.149 519.565 560.316 516.014 557.24 512.047ZM596.408 158.565C582.438 175.866 571.261 194.301 561.379 214.188C550.302 236.478 541.359 260.073 537.476 284.75C536.473 291.13 534.87 299.441 535.66 305.825L535.75 306.319C536.717 305.597 536.62 305.468 537.03 304.398C541.274 283.266 548.596 264.08 557.436 244.475L576.279 206.316L596.556 172.07C597.16 171.04 600.06 167.145 600.112 166.26C600.119 166.134 598.951 164.316 598.8 164.057C597.778 162.294 597.031 160.505 596.408 158.565ZM355.748 626.254L342.696 649.012C336.71 659.936 331.648 670.4 323.354 679.815L334.383 684.001C339.262 683.917 343.864 682.361 348.5 680.979L364.438 676.31L364.796 675.892C359.718 659.426 358.317 643.181 355.748 626.254ZM549.564 588.162L544.999 650.679L561.506 635.648L580.867 617.32L549.564 588.162ZM329.813 692.25L317.501 697.1C320.684 703.136 325.302 711.423 324.812 718.417C323.857 719.816 323.834 719.943 322.25 720.496C319.767 719.759 318.599 717.357 317.318 715.257C314.021 716.89 309.499 719.09 308.147 722.784C307.853 723.587 308.046 724.597 308.145 725.414L309.25 726.584C314.13 729.696 321.453 729.858 326.958 728.581C331.511 727.525 336.891 724.771 339.314 720.55C341.828 716.17 340.456 710.48 338.97 705.979C337.218 700.671 334.961 696.553 330.999 692.574L329.813 692.25ZM323.808 645.265C316.198 654.188 300.614 672.82 301.545 684.984C301.621 685.968 302.598 687.055 303.343 687.689C306.184 690.109 309.874 690.795 313.494 690.329L316.457 689.853L324.038 687.035C320.762 686.078 316.092 685.288 314.366 682.032C313.831 681.022 314.009 680.603 314.062 679.5C315.628 676.368 318.78 674.457 321.295 672.105C324.031 669.546 326.829 666.035 328.552 662.718C325.618 659.875 323.072 657.636 322.97 653.241C322.907 650.532 323.293 647.916 323.808 645.265ZM479.982 173.75C475.275 180.352 471.873 187.685 468.442 195C456.003 221.513 447.488 249.872 445.032 279.14C444.401 286.665 443.863 294.763 445.05 302.25L445.367 302.244L445.689 301.25C447.143 286.652 448.999 271.996 452.194 257.667C455.955 240.796 461.556 224.436 467.807 208.35L477.034 185.643C478.375 182.719 480.878 179.202 481.796 176.25C481.996 175.608 480.898 174.327 480.557 173.875L479.982 173.75ZM614.831 138.52C609.464 140.539 606.025 142.688 603.562 148.107C602.223 151.054 601.756 153.691 603.048 156.75C604.206 159.495 606.595 162.21 609.407 163.323C611.05 163.974 612.554 164.026 614.282 164.158L614.693 164.208C619.625 162.719 623.569 160.172 626.069 155.485C627.949 151.962 627.881 148.349 626.659 144.608C625.944 142.42 624.197 140.23 622.09 139.235C619.854 138.18 617.234 138.405 614.831 138.52ZM494.836 153.25C491.759 154.173 489.897 155.896 488.43 158.75C486.815 161.891 485.665 166.207 486.767 169.723C487.232 171.206 488.32 172.183 489.483 173.136C491.3 173.569 492.901 173.535 494.76 173.467C498.703 171.112 501.808 168.941 503.076 164.248C503.869 161.317 503.357 158.435 501.681 155.884C500.73 154.437 499.538 153.663 497.845 153.329C496.841 153.131 495.846 153.07 494.836 153.25ZM359.727 691.75L342.385 696.885C344.865 703.048 345.74 708.543 347.143 714.92C353.601 710.789 359.001 704.489 363.681 698.487C362.851 696.763 361.395 692.659 359.727 691.75Z"/>
	<path fill="#242122" d="M404.418 369.075C406.648 368.917 409.26 369.01 411.25 370.127C416.363 372.995 418.51 379.882 419.779 385.266C425.254 408.495 420.574 433.122 407.909 453.25C400.005 465.81 389.454 476.317 374.589 479.654C371.679 479.632 368.855 479.779 366.25 478.28C361.394 475.486 358.709 469.542 357.293 464.336C351.951 444.687 361.142 418.006 371.126 400.989C373.799 396.433 377.002 392.228 380.274 388.09C386.68 379.99 394.058 371.757 404.418 369.075Z"/>
	<path fill="#242122" d="M516.892 365.623C521.113 365.152 525.504 365.462 529.267 367.603C535.81 371.326 539.279 378.914 541.087 385.942C546.765 408.024 541.834 433.467 530.195 452.865C523.511 464.004 514.929 474.331 501.838 477.627C498.422 477.864 494.87 477.851 491.731 476.305C484.425 472.705 480.231 464.788 477.935 457.322C471.483 436.347 475.041 412.45 485.214 393.219C492.567 379.316 501.73 370.286 516.892 365.623Z"/>
	<path fill="#242122" d="M470.468 564.75L472.003 564.575C473.304 565.378 473.443 565.321 473.915 566.75C470.743 577.598 460.534 584.884 450.935 589.77C448.831 590.841 445.381 591.828 443.73 593.4C457.934 638.413 464.904 685.275 480.5 729.895C484.96 742.654 489.901 756.185 496.371 768.066C497.685 770.479 499.098 772.809 500.754 775.004C502.507 777.329 506.7 780.513 507.02 783.275L507.102 784.25C506.361 785.809 506.025 785.727 504.5 786.403C503.037 786.277 501.762 786.14 500.51 785.311C487.277 776.551 466.95 714.784 462.054 697.465L448.332 638.004L438.231 594.852L431.432 596.838L420.466 598.589L420.63 611.327C420.821 615.543 422.457 623.329 420.25 626.995C418.924 627.07 418.713 627.061 417.541 626.449C415.919 624.262 415.726 621.343 415.486 618.704C414.879 612.043 415.067 605.521 415.467 598.863C414.03 598.332 411.093 598.978 409.463 598.944C404.897 598.848 400.267 598.591 395.73 598.066C394.215 608.067 393.016 617.744 393.357 627.896C393.702 638.179 395.766 648.569 398.232 658.526C402.297 674.938 408.079 691.38 415.152 706.75C417.43 711.701 420.767 716.108 422.972 721C422.491 722.372 422.161 723.227 421.058 724.25L419.97 724.134C418.951 723.207 418.101 722.301 417.305 721.171C412.42 714.233 409.312 705.184 406.216 697.315C393.886 665.982 383.927 631.019 390.054 597.224C384.332 596.043 377.684 593.918 373.25 589.941C372.146 588.951 371.481 587.766 371.468 586.25C371.453 584.389 372.487 583.846 373.748 582.747C377.076 582.472 378.782 586.121 381.565 587.611C384.025 588.928 387.112 589.641 389.833 590.172C411.212 594.344 440.159 591.346 457.875 577.949C460.504 575.961 463.024 573.555 465.09 570.989C466.793 568.874 468.204 566.291 470.468 564.75Z"/>
</svg>
